<svg width="59" height="59" viewBox="0 0 59 59" fill="none" xmlns="http://www.w3.org/2000/svg">
    <path d="M46.4299 4.37704H12.5377C9.87479 4.37704 7.696 6.55583 7.696 9.21879V43.111C7.696 45.7739 9.87479 47.9527 12.5377 47.9527H22.2212L27.765 53.4965C28.7092 54.4407 30.2343 54.4407 31.1785 53.4965L36.7465 47.9527H46.4299C49.0929 47.9527 51.2717 45.7739 51.2717 43.111V9.21879C51.2717 6.55583 49.0929 4.37704 46.4299 4.37704ZM34.0351 30.7161L29.4838 40.6901L24.9326 30.7161L14.9586 26.1649L24.9326 21.6136L29.4838 11.6397L34.0351 21.6136L44.0091 26.1649L34.0351 30.7161Z" fill="#AB5373"/>
</svg>
