<svg width="153" height="67" viewBox="0 0 153 67" fill="none" xmlns="http://www.w3.org/2000/svg">
    <path d="M134.58 5.76465H14.7373C7.12412 5.76465 0.952451 11.9363 0.952451 19.5495V51.9296C0.952451 59.5428 7.12412 65.7144 14.7373 65.7144H134.58C142.193 65.7144 148.364 59.5428 148.364 51.9296V19.5495C148.364 11.9363 142.193 5.76465 134.58 5.76465Z"
          fill="#AB5373" stroke="#AB5373" stroke-width="1.90135" stroke-linecap="round" stroke-linejoin="round"/>
    <path d="M138.229 1.58166H18.3871C10.774 1.58166 4.60233 7.75334 4.60233 15.3665V47.7466C4.60233 55.3597 10.774 61.5314 18.3871 61.5314H138.229C145.843 61.5314 152.014 55.3597 152.014 47.7466V15.3665C152.014 7.75334 145.843 1.58166 138.229 1.58166Z"
          fill="#F8EBEE" stroke="#AB5373" stroke-width="1.90135" stroke-linecap="round" stroke-linejoin="round"/>
    <path d="M41.6029 22.4015C41.6029 25.1166 40.7977 27.7707 39.2893 30.0282C37.7809 32.2858 35.6369 34.0453 33.1285 35.0843C30.6201 36.1233 27.8599 36.3952 25.197 35.8655C22.5341 35.3358 20.088 34.0284 18.1681 32.1085C16.2482 30.1887 14.9408 27.7426 14.4111 25.0797C13.8814 22.4167 14.1534 19.6565 15.1924 17.1481C16.2314 14.6397 17.9909 12.4957 20.2484 10.9873C22.5059 9.47884 25.1601 8.6737 27.8752 8.6737C29.6786 8.6712 31.4649 9.02457 33.1315 9.71357C34.7982 10.4026 36.3125 11.4137 37.5877 12.6889C38.8629 13.9641 39.874 15.4785 40.563 17.1451C41.252 18.8118 41.6054 20.598 41.6029 22.4015Z"
          fill="#AB5373" stroke="#AB5373" stroke-width="1.90135" stroke-linecap="round" stroke-linejoin="round"/>
    <path d="M53.8093 17.1157H135.548" stroke="#AB5373" stroke-width="1.90135" stroke-linecap="round"
          stroke-linejoin="round"/>
    <path d="M53.8093 30.8435H135.548" stroke="#AB5373" stroke-width="1.90135" stroke-linecap="round"
          stroke-linejoin="round"/>
    <path d="M53.8093 44.5523H135.548" stroke="#AB5373" stroke-width="1.90135" stroke-linecap="round"
          stroke-linejoin="round"/>
</svg>
