<svg width="278" height="108" viewBox="0 0 278 108" fill="none" xmlns="http://www.w3.org/2000/svg">
    <path d="M27.3858 31.0271H1.2713V109.331H27.3858V31.0271Z" fill="#AB5373"/>
    <path d="M27.3845 110.315H1.27004C1.00908 110.315 0.758754 110.212 0.574224 110.027C0.389694 109.843 0.286072 109.592 0.286072 109.331V30.9878C0.286072 30.7269 0.389694 30.4766 0.574224 30.2921C0.758754 30.1075 1.00908 30.0039 1.27004 30.0039H27.3845C27.6455 30.0039 27.8958 30.1075 28.0803 30.2921C28.2648 30.4766 28.3685 30.7269 28.3685 30.9878V109.292C28.3738 109.425 28.3523 109.557 28.3052 109.681C28.2581 109.805 28.1865 109.918 28.0946 110.013C28.0027 110.109 27.8924 110.185 27.7704 110.237C27.6484 110.289 27.5171 110.315 27.3845 110.315ZM2.25401 108.347H26.4006V32.0111H2.25401V108.347Z"
          fill="#E4BDC8"/>
    <path d="M62.9067 0.976589H36.7922V109.331H62.9067V0.976589Z" fill="#F8EBEE"/>
    <path d="M62.9069 110.315H36.8514C36.5904 110.315 36.3402 110.212 36.1556 110.027C35.9711 109.843 35.8674 109.592 35.8674 109.331V0.976789C35.8674 0.715824 35.9711 0.465548 36.1556 0.281018C36.3402 0.0964878 36.5904 -0.00717926 36.8514 -0.00717926H62.9659C63.2269 -0.00717926 63.4772 0.0964878 63.6617 0.281018C63.8462 0.465548 63.9499 0.715824 63.9499 0.976789V109.331C63.9501 109.466 63.9229 109.599 63.8698 109.722C63.8167 109.845 63.7388 109.957 63.6411 110.049C63.5434 110.141 63.4278 110.212 63.3016 110.258C63.1753 110.304 63.041 110.323 62.9069 110.315ZM37.7763 108.347H61.9229V1.96076H37.7763V108.347Z"
          fill="#E4BDC8"/>
    <path d="M98.4282 41.9494H72.3136V109.332H98.4282V41.9494Z" fill="#AB5373"/>
    <path d="M98.4278 110.315H72.2739C72.0129 110.315 71.7627 110.212 71.5781 110.027C71.3936 109.843 71.2899 109.592 71.2899 109.332V41.9494C71.295 41.69 71.4003 41.4426 71.5837 41.2592C71.7672 41.0757 72.0145 40.9704 72.2739 40.9654H98.3884C98.6494 40.9654 98.8997 41.0691 99.0842 41.2536C99.2687 41.4381 99.3724 41.6884 99.3724 41.9494V109.332C99.3726 109.586 99.2744 109.83 99.0983 110.014C98.9222 110.197 98.6819 110.305 98.4278 110.315ZM73.2972 108.348H97.4438V42.9333H73.2972V108.348Z"
          fill="#E4BDC8"/>
    <path d="M133.948 13.729H107.834V109.331H133.948V13.729Z" fill="#F8EBEE"/>
    <path d="M133.949 110.315H107.834C107.573 110.315 107.323 110.212 107.138 110.027C106.954 109.843 106.85 109.592 106.85 109.331V13.729C106.85 13.468 106.954 13.2178 107.138 13.0332C107.323 12.8487 107.573 12.745 107.834 12.745H133.949C134.21 12.745 134.46 12.8487 134.645 13.0332C134.829 13.2178 134.933 13.468 134.933 13.729V109.331C134.933 109.592 134.829 109.843 134.645 110.027C134.46 110.212 134.21 110.315 133.949 110.315ZM108.818 108.347H132.965V14.713H108.818V108.347Z"
          fill="#E4BDC8"/>
    <path d="M169.51 46.5148H143.395V109.351H169.51V46.5148Z" fill="#F8EBEE"/>
    <path d="M169.51 110.315H143.396C143.135 110.315 142.884 110.212 142.7 110.027C142.515 109.843 142.412 109.592 142.412 109.331V46.515C142.412 46.254 142.515 46.0037 142.7 45.8192C142.884 45.6347 143.135 45.531 143.396 45.531H169.51C169.771 45.531 170.021 45.6347 170.206 45.8192C170.39 46.0037 170.494 46.254 170.494 46.515V109.331C170.494 109.592 170.39 109.843 170.206 110.027C170.021 110.212 169.771 110.315 169.51 110.315ZM144.38 108.348H168.526V47.4989H144.38V108.348Z"
          fill="#E4BDC8"/>
    <path d="M205.031 13.729H178.916V109.331H205.031V13.729Z" fill="#AB5373"/>
    <path d="M205.03 110.315H178.916C178.655 110.315 178.404 110.212 178.22 110.027C178.035 109.843 177.932 109.592 177.932 109.331V13.729C177.932 13.468 178.035 13.2178 178.22 13.0332C178.404 12.8487 178.655 12.745 178.916 12.745H205.03C205.291 12.745 205.541 12.8487 205.726 13.0332C205.91 13.2178 206.014 13.468 206.014 13.729V109.331C206.014 109.592 205.91 109.843 205.726 110.027C205.541 110.212 205.291 110.315 205.03 110.315ZM179.9 108.347H204.125V14.713H179.9V108.347Z"
          fill="#E4BDC8"/>
    <path d="M240.553 70.1893H214.439V109.351H240.553V70.1893Z" fill="#F8EBEE"/>
    <path d="M240.572 110.315H214.438C214.177 110.315 213.927 110.212 213.742 110.027C213.558 109.843 213.454 109.592 213.454 109.331V70.1892C213.454 69.9283 213.558 69.678 213.742 69.4935C213.927 69.3089 214.177 69.2053 214.438 69.2053H240.572C240.833 69.2053 241.083 69.3089 241.268 69.4935C241.452 69.678 241.556 69.9283 241.556 70.1892V109.331C241.556 109.592 241.452 109.843 241.268 110.027C241.083 110.212 240.833 110.315 240.572 110.315ZM215.422 108.348H239.549V71.1732H215.422V108.348Z"
          fill="#E4BDC8"/>
    <path d="M276.074 31.0271H249.96V109.331H276.074V31.0271Z" fill="#AB5373"/>
    <path d="M276.093 110.315H249.958C249.697 110.315 249.447 110.212 249.263 110.027C249.078 109.843 248.974 109.592 248.974 109.331V30.9878C248.974 30.7269 249.078 30.4766 249.263 30.2921C249.447 30.1075 249.697 30.0039 249.958 30.0039H276.093C276.354 30.0039 276.604 30.1075 276.788 30.2921C276.973 30.4766 277.077 30.7269 277.077 30.9878V109.292C277.082 109.425 277.06 109.557 277.013 109.681C276.966 109.805 276.895 109.918 276.803 110.013C276.711 110.109 276.6 110.185 276.478 110.237C276.356 110.289 276.225 110.315 276.093 110.315ZM250.942 108.347H275.109V32.0111H250.942V108.347Z"
          fill="#E4BDC8"/>
</svg>
