<svg width="59" height="59" viewBox="0 0 59 59" fill="none" xmlns="http://www.w3.org/2000/svg">
    <path d="M33.8746 25.7745L31.3085 24.5882C30.3644 24.1525 30.3644 22.821 31.3085 22.3852L33.8746 21.199L35.0609 18.6571C35.4966 17.713 36.8281 17.713 37.2639 18.6571L38.4501 21.2232L40.992 22.4095C41.9361 22.8452 41.9361 24.1767 40.992 24.6124L38.4259 25.7987L37.2396 28.3406C36.8039 29.2847 35.4724 29.2847 35.0367 28.3406L33.8746 25.7745ZM10.6101 33.1823L11.7963 30.6162L14.3624 29.43C15.3066 28.9942 15.3066 27.6627 14.3624 27.227L11.7963 26.0408L10.6101 23.4988C10.1985 22.5547 8.84283 22.5547 8.43128 23.4988L7.24505 26.065L4.67893 27.2512C3.73479 27.687 3.73479 29.0184 4.67893 29.4542L7.24505 30.6404L8.43128 33.1823C8.84283 34.1265 10.1985 34.1265 10.6101 33.1823ZM21.5282 21.0538L23.0533 17.6645L26.4426 16.1394C27.3867 15.7036 27.3867 14.3722 26.4426 13.9364L23.0533 12.4113L21.5282 9.02204C21.0924 8.0779 19.761 8.0779 19.3252 9.02204L17.8001 12.4113L14.4108 13.9364C13.4667 14.3722 13.4667 15.7036 14.4108 16.1394L17.8001 17.6645L19.3252 21.0538C19.7367 21.9979 21.0924 21.9979 21.5282 21.0538ZM53.9194 21.7316C52.9511 20.7633 51.3291 20.7875 50.4092 21.8284L34.9398 39.2103L26.9752 31.2456C26.031 30.3015 24.5059 30.3015 23.5617 31.2456L8.93966 45.8919C7.94711 46.8845 7.94711 48.5307 8.93966 49.5232C9.93222 50.5158 11.5784 50.5158 12.571 49.5232L25.2805 36.7894L33.1484 44.6573C34.1409 45.6498 35.7387 45.6014 36.6586 44.5604L54.0163 25.024C54.8636 24.0799 54.8152 22.6273 53.9194 21.7316Z" fill="#AB5373"/>
</svg>
