<svg width="44" height="44" viewBox="0 0 44 44" fill="none" xmlns="http://www.w3.org/2000/svg">
<rect x="0.5" y="0.5" width="43" height="43" rx="21.5" fill="white"/>
<rect x="0.5" y="0.5" width="43" height="43" rx="21.5" stroke="#CAC4D0"/>
<path d="M28.525 18.667L26.6334 16.7753C26.6917 16.4253 26.7834 16.1003 26.9 15.817C26.9917 15.6003 27.025 15.3503 26.975 15.092C26.8667 14.492 26.2834 14.0753 25.6667 14.0836C24.3417 14.1086 23.1667 14.7586 22.4167 15.7503H18.25C15.7167 15.7503 13.6667 17.8003 13.6667 20.3336C13.6667 22.2086 14.8084 26.567 15.4 28.7003C15.6 29.417 16.2584 29.917 17.0084 29.917H18.6667C19.5834 29.917 20.3334 29.167 20.3334 28.2503H22C22 29.167 22.75 29.917 23.6667 29.917H25.3417C26.075 29.917 26.725 29.4336 26.9417 28.7253L27.9834 25.2586L29.7667 24.6586C30.1084 24.542 30.3334 24.2253 30.3334 23.867V19.5003C30.3334 19.042 29.9584 18.667 29.5 18.667H28.525ZM22 19.917H19.5C19.0417 19.917 18.6667 19.542 18.6667 19.0836C18.6667 18.6253 19.0417 18.2503 19.5 18.2503H22C22.4584 18.2503 22.8334 18.6253 22.8334 19.0836C22.8334 19.542 22.4584 19.917 22 19.917ZM25.3334 21.5836C24.875 21.5836 24.5 21.2086 24.5 20.7503C24.5 20.292 24.875 19.917 25.3334 19.917C25.7917 19.917 26.1667 20.292 26.1667 20.7503C26.1667 21.2086 25.7917 21.5836 25.3334 21.5836Z" fill="#635D6C"/>
</svg>
