<svg width="24" height="24" viewBox="0 0 24 24" fill="none" xmlns="http://www.w3.org/2000/svg">
<rect x="0.5" y="0.5" width="23" height="23" rx="11.5" fill="white"/>
<rect x="0.5" y="0.5" width="23" height="23" rx="11.5" stroke="#CAC4D0"/>
<path d="M5.99918 15.6407V17.6674C5.99918 17.854 6.14584 18.0007 6.33251 18.0007H8.35918C8.44584 18.0007 8.53251 17.9674 8.59251 17.9007L15.8725 10.6274L13.3725 8.12736L6.09918 15.4007C6.03251 15.4674 5.99918 15.5474 5.99918 15.6407ZM17.8058 8.69402C18.0658 8.43402 18.0658 8.01402 17.8058 7.75402L16.2458 6.19402C15.9858 5.93402 15.5658 5.93402 15.3058 6.19402L14.0858 7.41402L16.5858 9.91402L17.8058 8.69402Z" fill="#635D6C"/>
</svg>
