<svg width="44" height="44" viewBox="0 0 44 44" fill="none" xmlns="http://www.w3.org/2000/svg">
<rect x="0.5" y="0.5" width="43" height="43" rx="21.5" fill="white"/>
<rect x="0.5" y="0.5" width="43" height="43" rx="21.5" stroke="#CAC4D0"/>
<path d="M29.5 13.8418C29.3917 13.8418 29.2833 13.8835 29.2083 13.9668L28.55 14.6252C28.3833 14.7918 28.125 14.7918 27.9583 14.6252L27.3 13.9668C27.1333 13.8002 26.875 13.8002 26.7083 13.9668L26.05 14.6252C25.8833 14.7918 25.625 14.7918 25.4583 14.6252L24.8 13.9668C24.6333 13.8002 24.375 13.8002 24.2083 13.9668L23.55 14.6252C23.3833 14.7918 23.125 14.7918 22.9583 14.6252L22.3 13.9668C22.1333 13.8002 21.875 13.8002 21.7083 13.9668L21.05 14.6252C20.8833 14.7918 20.625 14.7918 20.4583 14.6252L19.7917 13.9585C19.625 13.7918 19.3667 13.7918 19.2 13.9585L18.5417 14.6252C18.375 14.7918 18.1167 14.7918 17.95 14.6252L17.2917 13.9585C17.125 13.7918 16.8667 13.7918 16.7 13.9585L16.0417 14.6252C15.875 14.7918 15.6167 14.7918 15.45 14.6252L14.7917 13.9585C14.7167 13.8835 14.6083 13.8418 14.5 13.8418V30.1668C14.6083 30.1668 14.7167 30.1252 14.7917 30.0418L15.45 29.3835C15.6167 29.2168 15.875 29.2168 16.0417 29.3835L16.7 30.0418C16.8667 30.2085 17.125 30.2085 17.2917 30.0418L17.95 29.3835C18.1167 29.2168 18.375 29.2168 18.5417 29.3835L19.2 30.0418C19.3667 30.2085 19.625 30.2085 19.7917 30.0418L20.45 29.3835C20.6167 29.2168 20.875 29.2168 21.0417 29.3835L21.7 30.0418C21.8667 30.2085 22.125 30.2085 22.2917 30.0418L22.95 29.3835C23.1167 29.2168 23.375 29.2168 23.5417 29.3835L24.2 30.0418C24.3667 30.2085 24.625 30.2085 24.7917 30.0418L25.45 29.3835C25.6167 29.2168 25.875 29.2168 26.0417 29.3835L26.7 30.0418C26.8667 30.2085 27.125 30.2085 27.2917 30.0418L27.95 29.3835C28.1167 29.2168 28.375 29.2168 28.5417 29.3835L29.2 30.0418C29.2833 30.1252 29.3917 30.1668 29.4917 30.1668V13.8418H29.5ZM26.1667 26.1668H17.8333C17.375 26.1668 17 25.7918 17 25.3335C17 24.8752 17.375 24.5002 17.8333 24.5002H26.1667C26.625 24.5002 27 24.8752 27 25.3335C27 25.7918 26.625 26.1668 26.1667 26.1668ZM26.1667 22.8335H17.8333C17.375 22.8335 17 22.4585 17 22.0002C17 21.5418 17.375 21.1668 17.8333 21.1668H26.1667C26.625 21.1668 27 21.5418 27 22.0002C27 22.4585 26.625 22.8335 26.1667 22.8335ZM26.1667 19.5002H17.8333C17.375 19.5002 17 19.1252 17 18.6668C17 18.2085 17.375 17.8335 17.8333 17.8335H26.1667C26.625 17.8335 27 18.2085 27 18.6668C27 19.1252 26.625 19.5002 26.1667 19.5002Z" fill="#635D6C"/>
</svg>
