<svg width="24" height="24" viewBox="0 0 24 24" fill="none" xmlns="http://www.w3.org/2000/svg">
<rect x="0.5" y="0.5" width="23" height="23" rx="11.5" fill="white"/>
<rect x="0.5" y="0.5" width="23" height="23" rx="11.5" stroke="#CAC4D0"/>
<path d="M8.00001 16.6667C8.00001 17.4 8.60001 18 9.33334 18H14.6667C15.4 18 16 17.4 16 16.6667V10C16 9.26667 15.4 8.66667 14.6667 8.66667H9.33334C8.60001 8.66667 8.00001 9.26667 8.00001 10V16.6667ZM16 6.66667H14.3333L13.86 6.19333C13.74 6.07333 13.5667 6 13.3933 6H10.6067C10.4333 6 10.26 6.07333 10.14 6.19333L9.66668 6.66667H8.00001C7.63334 6.66667 7.33334 6.96667 7.33334 7.33333C7.33334 7.7 7.63334 8 8.00001 8H16C16.3667 8 16.6667 7.7 16.6667 7.33333C16.6667 6.96667 16.3667 6.66667 16 6.66667Z" fill="#635D6C"/>
</svg>
