<svg width="44" height="44" viewBox="0 0 44 44" fill="none" xmlns="http://www.w3.org/2000/svg">
<rect x="0.5" y="0.5" width="43" height="43" rx="21.5" fill="white"/>
<rect x="0.5" y="0.5" width="43" height="43" rx="21.5" stroke="#CAC4D0"/>
<path d="M25.3333 16.9998V21.9998C25.3333 22.9165 26.0833 23.6665 27 23.6665H27.8333V29.4998C27.8333 29.9582 28.2083 30.3332 28.6667 30.3332C29.125 30.3332 29.5 29.9582 29.5 29.4998V14.6082C29.5 14.0665 28.9917 13.6665 28.4667 13.7915C26.6667 14.2332 25.3333 15.7582 25.3333 16.9998ZM21.1667 19.4998H19.5V14.4998C19.5 14.0415 19.125 13.6665 18.6667 13.6665C18.2083 13.6665 17.8333 14.0415 17.8333 14.4998V19.4998H16.1667V14.4998C16.1667 14.0415 15.7917 13.6665 15.3333 13.6665C14.875 13.6665 14.5 14.0415 14.5 14.4998V19.4998C14.5 21.3415 15.9917 22.8332 17.8333 22.8332V29.4998C17.8333 29.9582 18.2083 30.3332 18.6667 30.3332C19.125 30.3332 19.5 29.9582 19.5 29.4998V22.8332C21.3417 22.8332 22.8333 21.3415 22.8333 19.4998V14.4998C22.8333 14.0415 22.4583 13.6665 22 13.6665C21.5417 13.6665 21.1667 14.0415 21.1667 14.4998V19.4998Z" fill="#635D6C"/>
</svg>
