<svg width="42" height="42" viewBox="0 0 42 42" fill="none" xmlns="http://www.w3.org/2000/svg">
    <rect width="42" height="42" rx="21" fill="#F1DADD"/>
    <path d="M29.4825 16.667L27.0233 14.2078C27.0992 13.7528 27.2183 13.3303 27.37 12.962C27.4892 12.6803 27.5325 12.3553 27.4675 12.0195C27.3267 11.2395 26.5683 10.6978 25.7667 10.7087C24.0442 10.7412 22.5167 11.5862 21.5417 12.8753H16.125C12.8317 12.8753 10.1667 15.5403 10.1667 18.8337C10.1667 21.2712 11.6508 26.937 12.42 29.7103C12.68 30.642 13.5358 31.292 14.5108 31.292H16.6667C17.8583 31.292 18.8333 30.317 18.8333 29.1253H21C21 30.317 21.975 31.292 23.1667 31.292H25.3442C26.2975 31.292 27.1425 30.6637 27.4242 29.7428L28.7783 25.2362L31.0967 24.4562C31.5408 24.3045 31.8333 23.8928 31.8333 23.427V17.7503C31.8333 17.1545 31.3458 16.667 30.75 16.667H29.4825ZM21 18.292H17.75C17.1542 18.292 16.6667 17.8045 16.6667 17.2087C16.6667 16.6128 17.1542 16.1253 17.75 16.1253H21C21.5958 16.1253 22.0833 16.6128 22.0833 17.2087C22.0833 17.8045 21.5958 18.292 21 18.292ZM25.3333 20.4587C24.7375 20.4587 24.25 19.9712 24.25 19.3753C24.25 18.7795 24.7375 18.292 25.3333 18.292C25.9292 18.292 26.4167 18.7795 26.4167 19.3753C26.4167 19.9712 25.9292 20.4587 25.3333 20.4587Z" fill="#AB5373"/>
</svg>
