<svg width="40" height="41" viewBox="0 0 40 41" fill="none" xmlns="http://www.w3.org/2000/svg">
    <rect y="0.81543" width="40" height="40" rx="20" fill="white"/>
    <rect width="20" height="20" transform="translate(10 10.8154)" fill="white"/>
    <path d="M20.0018 16.5433C17.6371 16.5433 15.7297 18.4507 15.7297 20.8154C15.7297 23.1802 17.6371 25.0876 20.0018 25.0876C22.3666 25.0876 24.274 23.1802 24.274 20.8154C24.274 18.4507 22.3666 16.5433 20.0018 16.5433ZM20.0018 23.5929C18.4737 23.5929 17.2244 22.3473 17.2244 20.8154C17.2244 19.2835 18.47 18.038 20.0018 18.038C21.5337 18.038 22.7793 19.2835 22.7793 20.8154C22.7793 22.3473 21.53 23.5929 20.0018 23.5929ZM25.4452 16.3685C25.4452 16.9225 24.9991 17.365 24.4488 17.365C23.8948 17.365 23.4523 16.9188 23.4523 16.3685C23.4523 15.8182 23.8985 15.372 24.4488 15.372C24.9991 15.372 25.4452 15.8182 25.4452 16.3685ZM28.2748 17.3798C28.2116 16.045 27.9067 14.8626 26.9288 13.8885C25.9546 12.9143 24.7723 12.6094 23.4374 12.5425C22.0617 12.4644 17.9383 12.4644 16.5625 12.5425C15.2314 12.6057 14.0491 12.9106 13.0712 13.8848C12.0933 14.8589 11.7921 16.0413 11.7252 17.3761C11.6471 18.7518 11.6471 22.8753 11.7252 24.251C11.7884 25.5858 12.0933 26.7682 13.0712 27.7424C14.0491 28.7165 15.2277 29.0214 16.5625 29.0883C17.9383 29.1664 22.0617 29.1664 23.4374 29.0883C24.7723 29.0251 25.9546 28.7202 26.9288 27.7424C27.9029 26.7682 28.2078 25.5858 28.2748 24.251C28.3528 22.8753 28.3528 18.7556 28.2748 17.3798ZM26.4975 25.7271C26.2075 26.4559 25.646 27.0173 24.9135 27.311C23.8167 27.7461 21.214 27.6457 20.0018 27.6457C18.7897 27.6457 16.1833 27.7424 15.0902 27.311C14.3614 27.021 13.8 26.4596 13.5062 25.7271C13.0712 24.6303 13.1716 22.0275 13.1716 20.8154C13.1716 19.6033 13.0749 16.9969 13.5062 15.9037C13.7962 15.175 14.3577 14.6135 15.0902 14.3198C16.187 13.8848 18.7897 13.9852 20.0018 13.9852C21.214 13.9852 23.8204 13.8885 24.9135 14.3198C25.6423 14.6098 26.2037 15.1712 26.4975 15.9037C26.9325 17.0006 26.8321 19.6033 26.8321 20.8154C26.8321 22.0275 26.9325 24.634 26.4975 25.7271Z"
          fill="#AB5373"/>
</svg>
