<svg width="18" height="18" viewBox="0 0 18 18" fill="none" xmlns="http://www.w3.org/2000/svg">
    <path d="M0.0230321 9.93318C-0.0439325 10.7368 0.0509341 11.7524 0.106738 12.1598C0.257394 12.7613 0.836613 14.1926 1.94824 15.1062C1.94824 15.1062 2.59243 15.6054 3.33778 16.0437C3.99771 16.4317 4.75142 16.7598 4.99514 16.8305C6.21722 17.2323 7.95835 17.5337 10.1347 17.3495C12.311 17.1654 13.9349 16.2111 14.3032 16.0437C14.5979 15.9098 15.3601 15.3609 15.6726 15.093C17.4171 13.2013 17.2463 12.8329 17.4171 12.2267C17.4394 12.0816 17.4975 11.5705 17.551 10.6865C17.618 9.58161 17.0321 6.13293 16.5466 4.52578C16.0611 2.91863 15.1738 1.49563 14.6213 0.859466C14.1794 0.350535 13.6559 0.692055 13.4494 0.926431C13.1704 1.21103 12.5823 1.81706 12.4617 1.96438C12.3412 2.11171 11.4628 3.24229 11.0387 3.78917C11.0387 3.78917 10.0338 3.60853 8.96282 3.58828C7.95054 3.56914 6.88101 3.70782 6.48512 3.78917C6.48512 3.78917 4.39248 1.26125 3.89024 0.825982C3.48845 0.477766 3.07551 0.680892 2.91925 0.825982C2.76858 1.02688 2.36345 1.59273 1.94827 2.24898C1.43661 3.05773 0.876136 4.9079 0.700001 5.48934L0.692679 5.51351C0.525267 6.06597 0.106738 8.92871 0.0230321 9.93318Z" fill="#AB5373"/>
</svg>
