<svg width="106" height="20" viewBox="0 0 106 20" fill="none" xmlns="http://www.w3.org/2000/svg">
    <path d="M17.494 16.5211C17.494 16.629 17.4796 16.737 17.4508 16.8449C17.422 16.9457 17.3932 17.05 17.3644 17.158C17.3428 17.2659 17.3249 17.3739 17.3105 17.4818C17.2961 17.5898 17.3033 17.6977 17.332 17.8057C17.1809 17.8705 17.037 17.946 16.9002 18.0324C16.7635 18.1187 16.6232 18.2123 16.4792 18.3131C16.3929 18.3059 16.3029 18.2879 16.2093 18.2591C16.123 18.2375 16.0366 18.2123 15.9503 18.1835C15.8639 18.1547 15.7739 18.1331 15.6804 18.1187C15.594 18.1116 15.5041 18.1223 15.4105 18.1511C15.3025 18.0648 15.1946 17.982 15.0866 17.9028C14.9787 17.8165 14.8527 17.7589 14.7088 17.7301C14.7088 17.4063 14.6872 17.0752 14.644 16.737C14.6081 16.593 14.5613 16.4527 14.5037 16.3159C14.4461 16.1792 14.4173 16.0317 14.4173 15.8733C14.4173 15.751 14.4317 15.6359 14.4605 15.5279C14.4893 15.4128 14.5037 15.294 14.5037 15.1717C14.5037 15.0493 14.4785 14.9378 14.4281 14.837C14.385 14.7291 14.331 14.6247 14.2662 14.5239C14.2518 14.3584 14.2518 14.1893 14.2662 14.0166C14.2806 13.8438 14.2878 13.6747 14.2878 13.5092C14.2878 13.3653 14.2734 13.2033 14.2446 13.0234C14.223 12.8363 14.1403 12.696 13.9963 12.6024V12.4729C13.9963 12.3937 13.9819 12.3217 13.9531 12.257C13.9244 12.185 13.91 12.1094 13.91 12.0303C13.874 11.9871 13.8272 11.9007 13.7696 11.7712C13.7193 11.6344 13.6617 11.4905 13.5969 11.3394C13.5393 11.181 13.4854 11.0335 13.435 10.8968C13.3918 10.7528 13.3666 10.6521 13.3594 10.5945C13.3234 10.4362 13.3054 10.2778 13.3054 10.1195C13.3126 9.95398 13.3162 9.78845 13.3162 9.62292C13.3162 9.47179 13.2982 9.32786 13.2623 9.19112C13.2335 9.05438 13.1939 8.92124 13.1435 8.79169C13.1003 8.65495 13.0571 8.51821 13.014 8.38148C12.9708 8.24474 12.9384 8.1044 12.9168 7.96046C12.8304 7.97486 12.7729 8.02164 12.7441 8.1008C12.7153 8.17277 12.6937 8.25193 12.6793 8.33829C12.6721 8.42466 12.6577 8.51102 12.6361 8.59738C12.6217 8.67654 12.575 8.73052 12.4958 8.75931L12.4742 8.82408C12.4742 8.86726 12.4886 8.90684 12.5174 8.94283C12.5462 8.97881 12.5606 9.02199 12.5606 9.07237C12.5606 9.15153 12.5426 9.21271 12.5066 9.25589C12.4778 9.29907 12.4418 9.33865 12.3986 9.37463C12.3555 9.40342 12.3087 9.43581 12.2583 9.47179C12.2079 9.50058 12.1683 9.54376 12.1396 9.60133C12.1396 9.62292 12.1432 9.64811 12.1504 9.6769C12.1575 9.69849 12.1611 9.71648 12.1611 9.73088C12.1611 9.83163 12.1324 9.92159 12.0748 10.0008C12.0172 10.0799 11.9884 10.1735 11.9884 10.2814C11.9884 10.3606 12.0028 10.4398 12.0316 10.5189C12.0604 10.5909 12.0748 10.6665 12.0748 10.7456C12.0748 10.8104 12.0388 10.9399 11.9668 11.1343C11.8949 11.3286 11.8085 11.5373 11.7077 11.7604C11.6142 11.9835 11.517 12.1922 11.4163 12.3865C11.3227 12.5736 11.2543 12.6924 11.2112 12.7427C11.168 12.9155 11.15 13.0954 11.1572 13.2825C11.1716 13.4624 11.168 13.6423 11.1464 13.8223C11.1248 13.9302 11.0924 14.0382 11.0492 14.1461C11.0061 14.2469 10.9665 14.3512 10.9305 14.4592C10.8945 14.5599 10.8729 14.6679 10.8657 14.783C10.8585 14.8982 10.8261 15.0061 10.7686 15.1069C10.7326 15.1717 10.6858 15.2292 10.6282 15.2796C10.5779 15.3228 10.5203 15.3696 10.4555 15.4199C10.3979 15.4631 10.3368 15.5099 10.272 15.5603C10.2144 15.6107 10.1676 15.6718 10.1316 15.7438C9.95173 15.7654 9.77181 15.8014 9.59189 15.8518C9.41197 15.8949 9.22845 15.9165 9.04133 15.9165C8.97656 15.9165 8.91179 15.9129 8.84702 15.9057C8.78225 15.8985 8.71748 15.8877 8.65271 15.8733C8.55915 15.787 8.47998 15.6862 8.41521 15.5711C8.35044 15.4559 8.25688 15.366 8.13454 15.3012C8.09855 15.0349 8.03018 14.7722 7.92943 14.5132C7.82867 14.2541 7.66315 14.0454 7.43285 13.887C7.47603 13.8223 7.49762 13.7575 7.49762 13.6927C7.49762 13.5704 7.45444 13.4588 7.36808 13.3581C7.28891 13.2573 7.23494 13.1458 7.20615 13.0234C7.19176 12.9371 7.18816 12.8543 7.19535 12.7751C7.20255 12.6888 7.20615 12.6024 7.20615 12.516C7.20615 12.4585 7.19535 12.4117 7.17376 12.3757C7.15217 12.3397 7.14138 12.3001 7.14138 12.257C7.18456 12.2066 7.20615 12.1526 7.20615 12.095C7.20615 12.0878 7.16297 12.0087 7.07661 11.8575C6.99024 11.7064 6.89669 11.5301 6.79593 11.3286C6.69518 11.1199 6.60162 10.9076 6.51526 10.6916C6.42889 10.4757 6.38212 10.303 6.37492 10.1735L6.43969 10.1303C6.43969 10.1087 6.42889 10.0871 6.4073 10.0655C6.38571 10.0439 6.37492 10.0151 6.37492 9.97917C6.37492 9.92159 6.38931 9.86042 6.4181 9.79565C6.45408 9.72368 6.48287 9.65891 6.50446 9.60133C6.49007 9.50058 6.46488 9.41062 6.42889 9.33145C6.40011 9.24509 6.36772 9.16233 6.33174 9.08316C6.29575 9.004 6.26337 8.92124 6.23458 8.83487C6.21299 8.74132 6.20579 8.64056 6.21299 8.53261C6.17701 8.57579 6.10864 8.66575 6.00788 8.80249C5.91432 8.93203 5.81717 9.07237 5.71641 9.2235C5.62285 9.37463 5.53649 9.51497 5.45733 9.64451C5.38536 9.77406 5.34937 9.86042 5.34937 9.9036C5.34937 9.96117 5.36377 10.0187 5.39256 10.0763C5.42854 10.1267 5.44653 10.1807 5.44653 10.2383C5.44653 10.303 5.43214 10.3678 5.40335 10.4326C5.38176 10.4901 5.35657 10.5513 5.32778 10.6161C5.30619 10.6737 5.281 10.7348 5.25222 10.7996C5.23063 10.8644 5.21983 10.9363 5.21983 11.0155C5.21983 11.181 5.23423 11.3466 5.26301 11.5121C5.2918 11.6776 5.30619 11.8431 5.30619 12.0087C5.30619 12.239 5.2846 12.4045 5.24142 12.5052C5.19824 12.5988 5.14067 12.6672 5.0687 12.7104C5.00393 12.7535 4.93196 12.7931 4.85279 12.8291C4.78083 12.8579 4.71246 12.9227 4.64769 13.0234C4.60451 13.2969 4.57572 13.5704 4.56132 13.8438C4.55413 14.1173 4.53973 14.3908 4.51814 14.6643C4.51095 14.7291 4.49295 14.7758 4.46417 14.8046C4.44258 14.8334 4.41379 14.8586 4.37781 14.8802C4.34182 14.8946 4.30224 14.9126 4.25906 14.9342C4.22307 14.9486 4.19069 14.9773 4.1619 15.0205C4.1763 15.0637 4.18709 15.1033 4.19429 15.1393C4.20148 15.1753 4.20508 15.2148 4.20508 15.258C4.20508 15.3588 4.1763 15.4487 4.11872 15.5279C4.06834 15.6071 4.00717 15.679 3.9352 15.7438C3.9496 15.8014 3.96039 15.859 3.96759 15.9165C3.97479 15.9741 3.97838 16.0353 3.97838 16.1C3.97838 16.1792 3.96039 16.2548 3.92441 16.3267C3.89562 16.3987 3.84884 16.4635 3.78407 16.5211V16.6074C3.78407 16.6938 3.79846 16.7873 3.82725 16.8881C3.85604 16.9817 3.87043 17.0716 3.87043 17.158C3.87043 17.2227 3.83085 17.2659 3.75168 17.2875C3.67972 17.3019 3.62574 17.3343 3.58976 17.3847C3.53938 17.4279 3.51059 17.4818 3.50339 17.5466C3.4962 17.6114 3.47101 17.6725 3.42783 17.7301C3.36306 17.8309 3.2767 17.9208 3.16874 18C3.06079 18.072 2.96363 18.1547 2.87727 18.2483H2.66137C2.50304 18.2483 2.34471 18.2411 2.18638 18.2267C2.03525 18.2123 1.88411 18.2195 1.73298 18.2483C1.62503 18.1835 1.53147 18.1044 1.45231 18.0108C1.37314 17.9172 1.29758 17.8237 1.22561 17.7301C1.16084 17.6294 1.09247 17.5322 1.0205 17.4386C0.955727 17.3379 0.883759 17.2443 0.804595 17.158C0.826185 17.0068 0.833382 16.8485 0.826185 16.683C0.826185 16.5175 0.826185 16.3519 0.826185 16.1864C0.826185 15.9993 0.840579 15.859 0.869366 15.7654C0.90535 15.6718 0.948531 15.5927 0.998908 15.5279C1.04929 15.4631 1.10326 15.3984 1.16084 15.3336C1.21841 15.2616 1.26879 15.1573 1.31197 15.0205C1.32636 14.963 1.33356 14.909 1.33356 14.8586C1.33356 14.801 1.33356 14.747 1.33356 14.6967C1.33356 14.6391 1.34076 14.5851 1.35515 14.5347C1.36954 14.4772 1.39833 14.4232 1.44151 14.3728C1.44871 14.2793 1.48469 14.2073 1.54946 14.1569C1.61423 14.1065 1.6826 14.0633 1.75457 14.0274C1.82654 13.9914 1.89491 13.9554 1.95968 13.9194C2.02445 13.8762 2.06403 13.8151 2.07843 13.7359C2.12881 13.5776 2.1468 13.4048 2.1324 13.2177C2.12521 13.0306 2.12161 12.8543 2.12161 12.6888C2.12161 12.5736 2.12881 12.4729 2.1432 12.3865C2.15759 12.2929 2.17559 12.2066 2.19718 12.1274C2.22596 12.0482 2.25475 11.9691 2.28354 11.8899C2.31232 11.8036 2.34111 11.71 2.3699 11.6092C2.39869 11.4581 2.41308 11.3502 2.41308 11.2854C2.42028 11.2206 2.42747 11.1666 2.43467 11.1235C2.44187 11.0731 2.45986 11.0119 2.48865 10.9399C2.51743 10.868 2.57501 10.7528 2.66137 10.5945C2.69016 10.5297 2.70815 10.4901 2.71535 10.4757C2.72974 10.4542 2.74053 10.4398 2.74773 10.4326C2.75493 10.4182 2.76572 10.4074 2.78012 10.4002C2.79451 10.393 2.8269 10.3678 2.87727 10.3246C2.90606 10.2958 2.93125 10.2526 2.95284 10.1951C2.97443 10.1375 2.99602 10.0799 3.01761 10.0223C3.0392 9.95758 3.06439 9.8964 3.09318 9.83883C3.12916 9.77406 3.17594 9.72368 3.23351 9.6877C3.19033 9.57974 3.16874 9.46819 3.16874 9.35304C3.16874 9.17312 3.21192 9.0076 3.29829 8.85646C3.38465 8.70533 3.45662 8.547 3.51419 8.38148C3.42783 8.16557 3.38465 7.93887 3.38465 7.70138C3.38465 7.49267 3.40984 7.31635 3.46021 7.17241C3.51059 7.02128 3.57176 6.88454 3.64373 6.7622C3.7157 6.63985 3.79127 6.5175 3.87043 6.39516C3.9496 6.27281 4.01797 6.13248 4.07554 5.97415C4.11872 5.8446 4.14391 5.71146 4.15111 5.57472C4.1655 5.43798 4.1763 5.30484 4.18349 5.1753C4.19069 5.03856 4.19789 4.90542 4.20508 4.77588C4.21948 4.63914 4.24826 4.5132 4.29144 4.39805C4.31303 4.33328 4.36701 4.2865 4.45337 4.25771C4.53973 4.22172 4.60451 4.17495 4.64769 4.11737C4.68367 4.10298 4.70886 4.07779 4.72325 4.0418C4.74484 3.99862 4.76283 3.95904 4.77723 3.92306C4.79162 3.88707 4.80961 3.85469 4.8312 3.8259C4.85279 3.78992 4.88878 3.76833 4.93916 3.76113C4.92476 3.71795 4.91397 3.67477 4.90677 3.63159C4.90677 3.58841 4.90677 3.54523 4.90677 3.50204C4.90677 3.34372 4.93556 3.19978 4.99313 3.07024C5.0579 2.94069 5.14067 2.83274 5.24142 2.74638C5.34937 2.66002 5.47172 2.59525 5.60846 2.55207C5.7452 2.50169 5.88913 2.4765 6.04027 2.4765C6.1914 2.4765 6.32094 2.50169 6.42889 2.55207C6.53685 2.59525 6.6376 2.64922 6.73116 2.714C6.83192 2.77877 6.92907 2.84354 7.02263 2.90831C7.12339 2.97308 7.23853 3.02346 7.36808 3.05944C7.41126 3.23216 7.43285 3.41568 7.43285 3.61C7.44004 3.80431 7.46164 3.99503 7.49762 4.18214C7.5336 4.32608 7.58038 4.47001 7.63796 4.61395C7.69553 4.75789 7.72432 4.90182 7.72432 5.04576C7.72432 5.13212 7.70633 5.21488 7.67034 5.29405C7.64156 5.37321 7.62716 5.45238 7.62716 5.53154C7.62716 5.64669 7.64875 5.75824 7.69193 5.86619C7.74231 5.96695 7.79629 6.0677 7.85386 6.16846C7.91863 6.26202 7.9834 6.35917 8.04817 6.45993C8.11295 6.55349 8.16692 6.65065 8.2101 6.7514C8.2101 6.87375 8.19571 6.99249 8.16692 7.10764C8.14533 7.21559 8.13454 7.32355 8.13454 7.4315C8.13454 7.56104 8.15253 7.69058 8.18851 7.82013C8.2245 7.94247 8.26408 8.06482 8.30726 8.18716C8.35764 8.30231 8.40082 8.42466 8.4368 8.5542C8.47279 8.67654 8.49078 8.80249 8.49078 8.93203C8.49078 9.02559 8.47998 9.11195 8.45839 9.19112C8.4368 9.27028 8.42601 9.35304 8.42601 9.43941C8.42601 9.51137 8.444 9.59054 8.47998 9.6769C8.52316 9.75606 8.57354 9.83883 8.63112 9.92519C8.68869 10.0044 8.74267 10.0835 8.79304 10.1627C8.85062 10.2418 8.8974 10.3174 8.93338 10.3894C8.97656 10.4829 9.01255 10.5837 9.04133 10.6916C9.07012 10.7924 9.09891 10.8932 9.12769 10.9939C9.16368 11.0875 9.19966 11.181 9.23565 11.2746C9.27883 11.3681 9.34 11.4509 9.41917 11.5229C9.49113 11.4797 9.5559 11.3933 9.61348 11.2638C9.67825 11.1343 9.73582 10.9831 9.7862 10.8104C9.84378 10.6377 9.89415 10.4578 9.93733 10.2706C9.98771 10.0763 10.0345 9.8964 10.0777 9.73088C10.128 9.55815 10.1748 9.41062 10.218 9.28827C10.2612 9.16593 10.3044 9.08676 10.3476 9.05078C10.3476 9.01479 10.344 8.98601 10.3368 8.96442C10.3296 8.93563 10.326 8.91044 10.326 8.88885C10.326 8.72332 10.3655 8.56859 10.4447 8.42466C10.5311 8.27352 10.5958 8.11879 10.639 7.96046C10.6966 7.77335 10.729 7.58623 10.7362 7.39911C10.7506 7.2048 10.7902 7.01768 10.8549 6.83776C10.8909 6.72261 10.9485 6.62546 11.0277 6.54629C11.1068 6.45993 11.168 6.36637 11.2112 6.26562C11.2759 6.10729 11.3299 5.93097 11.3731 5.73665C11.4163 5.54234 11.4379 5.35522 11.4379 5.1753C11.4379 5.11053 11.4199 5.04576 11.3839 4.98099C11.3551 4.90902 11.3407 4.83345 11.3407 4.75429C11.3407 4.67512 11.3731 4.55638 11.4379 4.39805C11.5026 4.23252 11.5818 4.06699 11.6754 3.90147C11.7689 3.72874 11.8625 3.57041 11.956 3.42648C12.0568 3.28254 12.1396 3.18179 12.2043 3.12421C12.3411 3.10262 12.4742 3.08463 12.6037 3.07024C12.7333 3.04865 12.8664 3.03785 13.0032 3.03785C13.0464 3.03785 13.0895 3.03785 13.1327 3.03785C13.1759 3.03785 13.2227 3.04505 13.2731 3.05944C13.3738 3.07384 13.4602 3.11342 13.5321 3.17819C13.6041 3.24296 13.6869 3.29694 13.7804 3.34012C13.8596 3.3761 13.9496 3.40129 14.0503 3.41568C14.1511 3.43008 14.223 3.47326 14.2662 3.54523V3.69636C14.2662 3.87628 14.3022 4.0418 14.3742 4.19294C14.4533 4.33687 14.5433 4.48081 14.644 4.62475L14.6225 4.81906C14.6081 5.02057 14.6332 5.20769 14.698 5.38041C14.77 5.54594 14.8456 5.72226 14.9247 5.90937C14.9751 6.04611 15.0075 6.19005 15.0219 6.34118C15.0435 6.48512 15.0543 6.63265 15.0543 6.78379C15.0615 6.93492 15.0687 7.08605 15.0759 7.23718C15.083 7.38832 15.101 7.53585 15.1298 7.67979C15.1658 7.8741 15.209 8.03603 15.2594 8.16557C15.3169 8.29511 15.3457 8.46424 15.3457 8.67295C15.3457 8.7665 15.3565 8.85287 15.3781 8.93203C15.4069 9.004 15.4321 9.07597 15.4537 9.14794C15.4753 9.2199 15.4897 9.29907 15.4969 9.38543C15.5113 9.47179 15.5041 9.57255 15.4753 9.6877C15.5041 9.77406 15.5436 9.84962 15.594 9.91439C15.6516 9.97917 15.7092 10.0439 15.7667 10.1087C15.8243 10.1735 15.8783 10.2383 15.9287 10.303C15.9862 10.3678 16.0294 10.4434 16.0582 10.5297C16.0942 10.6305 16.1086 10.7312 16.1014 10.832C16.0942 10.9255 16.1014 11.0155 16.123 11.1019C16.159 11.2026 16.2021 11.2998 16.2525 11.3933C16.3101 11.4797 16.3389 11.5733 16.3389 11.674V11.9223C16.3389 12.0303 16.3533 12.131 16.3821 12.2246C16.4109 12.3181 16.4432 12.4117 16.4792 12.5052C16.5224 12.5988 16.5584 12.6924 16.5872 12.7859C16.616 12.8723 16.6304 12.9658 16.6304 13.0666C16.6304 13.1817 16.616 13.2897 16.5872 13.3904C16.5584 13.4912 16.544 13.5992 16.544 13.7143C16.544 13.8654 16.5908 14.0669 16.6843 14.3188C16.7851 14.5635 16.893 14.8226 17.0082 15.0961C17.1305 15.3624 17.2421 15.6251 17.3428 15.8841C17.4436 16.136 17.494 16.3483 17.494 16.5211ZM28.3971 15.1501V15.2364C28.4043 15.4379 28.3719 15.6035 28.3 15.733C28.2352 15.8626 28.1488 15.9741 28.0409 16.0677C27.9329 16.1612 27.8106 16.2476 27.6739 16.3267C27.5371 16.4059 27.4004 16.4923 27.2636 16.5858V16.6722C27.2636 16.7945 27.242 16.9133 27.1989 17.0284C27.1629 17.1364 27.1341 17.2479 27.1125 17.3631H27.0693C26.9614 17.3487 26.8642 17.3667 26.7778 17.4171C26.6987 17.4674 26.6195 17.4926 26.5404 17.4926C26.4756 17.4926 26.4072 17.471 26.3352 17.4279C26.2633 17.4422 26.2165 17.4674 26.1949 17.5034C26.1733 17.5394 26.1517 17.579 26.1301 17.6222C26.1085 17.6653 26.0762 17.7049 26.033 17.7409C25.9898 17.7697 25.9142 17.7841 25.8063 17.7841C25.7703 17.7841 25.7271 17.8057 25.6767 17.8489C25.6336 17.8849 25.5832 17.928 25.5256 17.9784C25.4752 18.0288 25.4249 18.0756 25.3745 18.1187C25.3241 18.1691 25.2845 18.2015 25.2557 18.2159C25.2197 18.2375 25.173 18.2483 25.1154 18.2483C25.0578 18.2555 24.993 18.2591 24.9211 18.2591C24.8563 18.2663 24.7915 18.2699 24.7268 18.2699C24.662 18.2771 24.6044 18.2843 24.554 18.2915C24.4965 18.3059 24.4425 18.3347 24.3921 18.3778C24.3489 18.421 24.3057 18.4426 24.2626 18.4426C24.205 18.4426 24.151 18.4282 24.1006 18.3994C24.0575 18.3706 24.0071 18.3562 23.9495 18.3562C23.8991 18.3562 23.838 18.3706 23.766 18.3994C23.694 18.4282 23.6149 18.4606 23.5285 18.4966C23.4421 18.5326 23.3486 18.5649 23.2478 18.5937C23.1471 18.6225 23.0427 18.6369 22.9348 18.6369C22.7908 18.6369 22.6649 18.6153 22.5569 18.5721C22.5497 18.5721 22.5065 18.547 22.4274 18.4966C22.3554 18.4534 22.2619 18.3958 22.1467 18.3239C22.0388 18.2519 21.92 18.1727 21.7905 18.0864C21.6609 18.0072 21.5386 17.9316 21.4234 17.8597C21.3083 17.7805 21.2111 17.7157 21.132 17.6653C21.0528 17.615 21.006 17.5862 20.9916 17.579L20.9269 17.4279C20.8261 17.3847 20.7361 17.3307 20.657 17.2659C20.585 17.2012 20.5274 17.1148 20.4842 17.0068C20.4123 16.9637 20.3511 16.9097 20.3007 16.8449C20.2504 16.7729 20.2 16.701 20.1496 16.629C20.0992 16.557 20.0452 16.4923 19.9877 16.4347C19.9301 16.3699 19.8581 16.3231 19.7718 16.2944C19.707 16.1504 19.6458 16.0065 19.5882 15.8626C19.5307 15.7186 19.4731 15.5747 19.4155 15.4307L19.2644 15.3012C19.25 15.258 19.25 15.2184 19.2644 15.1825C19.2788 15.1393 19.286 15.0997 19.286 15.0637C19.286 15.0349 19.2608 14.9737 19.2104 14.8802C19.1672 14.7866 19.1169 14.6859 19.0593 14.5779C19.0089 14.4628 18.9585 14.3512 18.9081 14.2433C18.865 14.1353 18.8434 14.0526 18.8434 13.995C18.8434 13.887 18.8542 13.7827 18.8758 13.6819C18.8974 13.5812 18.9081 13.4804 18.9081 13.3797C18.9081 13.2933 18.8902 13.2105 18.8542 13.1314C18.8182 13.045 18.793 12.9586 18.7786 12.8723C18.757 12.7571 18.7498 12.6384 18.757 12.516C18.7714 12.3937 18.7786 12.2749 18.7786 12.1598C18.7786 12.0734 18.7642 11.9871 18.7354 11.9007C18.7066 11.8143 18.6922 11.7244 18.6922 11.6308C18.6922 11.5445 18.7174 11.4653 18.7678 11.3933C18.8182 11.3214 18.8434 11.2458 18.8434 11.1666C18.8434 10.9363 18.811 10.7096 18.7462 10.4865C18.6814 10.2562 18.6491 10.0259 18.6491 9.79565C18.6491 9.61573 18.6958 9.42141 18.7894 9.21271C18.883 9.004 18.9981 8.84567 19.1348 8.73772V8.23034C19.1996 8.21595 19.2464 8.18356 19.2752 8.13319C19.3112 8.08281 19.34 8.02523 19.3615 7.96046C19.3831 7.89569 19.4011 7.83092 19.4155 7.76615C19.4371 7.69418 19.4623 7.63301 19.4911 7.58263C19.5271 7.51786 19.5631 7.46388 19.599 7.4207C19.635 7.37033 19.6674 7.32355 19.6962 7.28037C19.725 7.22999 19.7466 7.17601 19.761 7.11844C19.7754 7.05367 19.779 6.9745 19.7718 6.88094C19.8941 6.83776 20.0057 6.77659 20.1064 6.69742C20.2072 6.61826 20.3043 6.5355 20.3979 6.44913C20.4986 6.36277 20.5994 6.28001 20.7002 6.20085C20.8081 6.12168 20.9269 6.06051 21.0564 6.01733C21.15 5.89498 21.3047 5.77623 21.5206 5.66109C21.7365 5.53874 21.956 5.42719 22.1791 5.32643C22.4022 5.22568 22.6001 5.13932 22.7728 5.06735C22.9456 4.98818 23.0355 4.93061 23.0427 4.89463C23.2442 4.91622 23.4529 4.92701 23.6688 4.92701C23.8847 4.92701 24.1006 4.93061 24.3165 4.93781C24.5324 4.945 24.7448 4.96659 24.9535 5.00258C25.1622 5.03136 25.3601 5.08894 25.5472 5.1753C25.5688 5.21848 25.594 5.25806 25.6228 5.29405C25.6587 5.33003 25.6911 5.36602 25.7199 5.402C25.7487 5.43079 25.7739 5.46677 25.7955 5.50995C25.8171 5.55313 25.8279 5.60351 25.8279 5.66109C26.087 5.76184 26.3137 5.93097 26.508 6.16846C26.7095 6.39876 26.875 6.66144 27.0045 6.95651C27.1413 7.24438 27.242 7.54665 27.3068 7.86331C27.3716 8.17277 27.404 8.45704 27.404 8.71613C27.404 8.79529 27.386 8.86006 27.35 8.91044C27.3212 8.96082 27.2924 9.02199 27.2636 9.09396C27.2276 9.15873 27.2133 9.2307 27.2205 9.30986C27.2276 9.38903 27.2133 9.4574 27.1773 9.51497C27.1413 9.62292 27.0873 9.72008 27.0153 9.80644C26.9434 9.8928 26.8786 9.98636 26.821 10.0871C26.6915 10.3894 26.5547 10.6845 26.4108 10.9723C26.2669 11.2602 26.0942 11.5409 25.8926 11.8143C25.8135 11.9151 25.7199 12.0123 25.612 12.1058C25.504 12.1994 25.4356 12.3145 25.4069 12.4513C25.2773 12.4513 25.1766 12.4837 25.1046 12.5484C25.0326 12.606 24.9679 12.6708 24.9103 12.7427C24.8527 12.8075 24.7879 12.8687 24.716 12.9263C24.644 12.9838 24.5432 13.009 24.4137 13.0018C24.3561 13.1026 24.295 13.1925 24.2302 13.2717C24.1726 13.3437 24.1078 13.4228 24.0359 13.5092C23.9639 13.5092 23.9027 13.5272 23.8523 13.5632C23.8092 13.592 23.7624 13.6279 23.712 13.6711C23.6616 13.7071 23.6077 13.7395 23.5501 13.7683C23.4925 13.7971 23.4205 13.8079 23.3342 13.8007C23.2694 13.8942 23.1938 13.977 23.1075 14.049C23.0211 14.1137 22.9312 14.1785 22.8376 14.2433C22.7512 14.308 22.6685 14.38 22.5893 14.4592C22.5101 14.5311 22.449 14.6211 22.4058 14.7291C22.3266 14.7506 22.2331 14.7722 22.1251 14.7938C22.0244 14.8082 21.956 14.8586 21.92 14.945C21.92 15.0817 21.9488 15.2112 22.0064 15.3336C22.0639 15.4487 22.1755 15.5063 22.341 15.5063C22.3986 15.6143 22.4742 15.7078 22.5677 15.787C22.6613 15.859 22.7548 15.9345 22.8484 16.0137C23.0283 15.9993 23.2082 15.9993 23.3882 16.0137C23.5681 16.0281 23.748 16.0353 23.9279 16.0353C24.1438 16.0353 24.3129 16.0173 24.4353 15.9813C24.5576 15.9453 24.6548 15.9057 24.7268 15.8626C24.8059 15.8122 24.8707 15.769 24.9211 15.733C24.9786 15.6898 25.047 15.6646 25.1262 15.6574C25.2269 15.4775 25.3313 15.3048 25.4392 15.1393C25.5472 14.9737 25.6983 14.8586 25.8926 14.7938C25.9502 14.6859 26.015 14.5779 26.087 14.47C26.1589 14.3548 26.2237 14.2397 26.2813 14.1245C26.346 14.0022 26.3892 13.8798 26.4108 13.7575C26.4396 13.6351 26.4396 13.5092 26.4108 13.3797C26.4756 13.2933 26.5476 13.1853 26.6267 13.0558C26.7131 12.9191 26.8066 12.7895 26.9074 12.6672C27.0081 12.5448 27.1125 12.4405 27.2205 12.3541C27.3356 12.2677 27.4543 12.2246 27.5767 12.2246C27.6918 12.2246 27.7926 12.2641 27.879 12.3433C27.9653 12.4153 28.0409 12.4944 28.1057 12.5808C28.2496 12.6024 28.3683 12.6564 28.4619 12.7427C28.5627 12.8219 28.6382 12.9191 28.6886 13.0342C28.7462 13.1422 28.7858 13.2645 28.8073 13.4012C28.8289 13.5308 28.8397 13.6567 28.8397 13.7791C28.8397 14.0022 28.8037 14.2469 28.7318 14.5132C28.667 14.7794 28.5555 14.9917 28.3971 15.1501ZM24.8347 7.80933C24.7987 7.81653 24.7735 7.81293 24.7591 7.79853C24.7519 7.77694 24.7448 7.75535 24.7376 7.73376C24.7304 7.70498 24.7232 7.67979 24.716 7.6582C24.7088 7.62941 24.698 7.60422 24.6836 7.58263C24.6476 7.53945 24.572 7.48907 24.4569 7.4315C24.3489 7.37392 24.2266 7.32355 24.0898 7.28037C23.9603 7.22999 23.8272 7.18681 23.6904 7.15082C23.5609 7.11484 23.4637 7.09685 23.399 7.09685C23.255 7.09685 23.1363 7.12204 23.0427 7.17241C22.9563 7.22279 22.8772 7.27677 22.8052 7.33434C22.7332 7.39192 22.6613 7.44589 22.5893 7.49627C22.5245 7.54665 22.4418 7.57543 22.341 7.58263C22.341 7.6474 22.323 7.70857 22.287 7.76615C22.2583 7.82372 22.2187 7.8777 22.1683 7.92808C22.1251 7.97845 22.0783 8.02883 22.028 8.07921C21.9848 8.12959 21.9488 8.17997 21.92 8.23034C21.8624 8.33829 21.8229 8.45704 21.8013 8.58658C21.7797 8.70893 21.7437 8.83128 21.6933 8.95362C21.6357 9.09036 21.5746 9.2199 21.5098 9.34225C21.445 9.4574 21.391 9.58694 21.3479 9.73088L21.1859 9.88201C21.15 10.0187 21.1284 10.1627 21.1212 10.3138C21.1212 10.4578 21.1212 10.6017 21.1212 10.7456C21.1212 10.9327 21.1428 11.1127 21.1859 11.2854C21.2291 11.4509 21.2579 11.6272 21.2723 11.8143C21.2723 11.8791 21.2651 11.9511 21.2507 12.0303C21.2363 12.1022 21.2291 12.1778 21.2291 12.257C21.2291 12.2929 21.2291 12.3253 21.2291 12.3541C21.2363 12.3829 21.2507 12.4153 21.2723 12.4513H21.3263C21.4054 12.4585 21.4738 12.4477 21.5314 12.4189C21.589 12.3901 21.6429 12.3541 21.6933 12.3109C21.7437 12.2677 21.7905 12.221 21.8336 12.1706C21.8768 12.113 21.9272 12.059 21.9848 12.0087C22.028 11.9727 22.0747 11.9511 22.1251 11.9439C22.1755 11.9367 22.2259 11.9151 22.2763 11.8791C22.3122 11.8431 22.3338 11.8072 22.341 11.7712C22.3482 11.728 22.3698 11.6884 22.4058 11.6524C22.4706 11.5948 22.5497 11.5445 22.6433 11.5013C22.744 11.4581 22.834 11.4149 22.9132 11.3717C22.9995 11.3286 23.0715 11.2746 23.1291 11.2098C23.1938 11.145 23.255 11.0803 23.3126 11.0155C23.3774 10.9507 23.4457 10.8932 23.5177 10.8428C23.5897 10.7852 23.676 10.7456 23.7768 10.724C23.82 10.6737 23.8739 10.5945 23.9387 10.4865C24.0035 10.3714 24.0683 10.249 24.133 10.1195C24.1978 9.98996 24.2554 9.86402 24.3057 9.74167C24.3633 9.61213 24.3993 9.51137 24.4137 9.43941H24.4569C24.5288 9.43941 24.5828 9.41782 24.6188 9.37463C24.662 9.32426 24.7124 9.28108 24.7699 9.24509C24.8059 9.16593 24.8275 9.08676 24.8347 9.0076C24.8491 8.92124 24.8563 8.83847 24.8563 8.75931C24.8563 8.59378 24.8419 8.43545 24.8131 8.28432C24.7915 8.13319 24.7987 7.97486 24.8347 7.80933ZM40.5525 11.4797C40.5525 11.746 40.5309 11.9907 40.4878 12.2138C40.4518 12.4297 40.4158 12.6636 40.3798 12.9155C40.3582 13.0738 40.3474 13.2285 40.3474 13.3797C40.3546 13.5308 40.3402 13.6855 40.3042 13.8438C40.2683 13.9662 40.2179 14.0849 40.1531 14.2001C40.0883 14.308 40.02 14.416 39.948 14.5239C39.876 14.6319 39.8041 14.7434 39.7321 14.8586C39.6673 14.9665 39.6169 15.0781 39.581 15.1932C39.5522 15.2868 39.5306 15.384 39.5162 15.4847C39.509 15.5855 39.4946 15.6862 39.473 15.787C39.4514 15.8877 39.4226 15.9849 39.3866 16.0785C39.3507 16.172 39.2967 16.2584 39.2247 16.3375C39.1815 16.3951 39.124 16.4419 39.052 16.4779C38.9872 16.5067 38.926 16.5498 38.8685 16.6074C38.8109 16.6722 38.7749 16.7478 38.7605 16.8341C38.7461 16.9133 38.7173 16.9853 38.6742 17.05H38.523C38.487 17.086 38.4655 17.1292 38.4583 17.1796C38.4511 17.2299 38.4259 17.2839 38.3827 17.3415C38.2963 17.4279 38.1668 17.525 37.9941 17.633C37.8213 17.7409 37.627 17.8489 37.4111 17.9568C37.1952 18.0648 36.9649 18.1691 36.7202 18.2699C36.4755 18.3706 36.238 18.4606 36.0077 18.5398C35.7846 18.6189 35.5723 18.6801 35.3708 18.7233C35.1765 18.7737 35.0182 18.7988 34.8958 18.7988C34.8023 18.7988 34.7339 18.788 34.6907 18.7665C34.6547 18.7521 34.626 18.7305 34.6044 18.7017C34.5828 18.6801 34.5612 18.6585 34.5396 18.6369C34.518 18.6225 34.4748 18.6153 34.4101 18.6153C34.3165 18.6153 34.2265 18.6261 34.1402 18.6477C34.0538 18.6693 33.9675 18.6801 33.8811 18.6801C33.7659 18.6801 33.658 18.6441 33.5572 18.5721C33.4637 18.5074 33.3629 18.4354 33.255 18.3562C33.147 18.2771 33.0247 18.2015 32.8879 18.1295C32.7512 18.0648 32.5857 18.036 32.3914 18.0432C32.3626 18.0072 32.323 17.9568 32.2726 17.892C32.2294 17.8201 32.1826 17.7481 32.1323 17.6761C32.0891 17.6042 32.0423 17.5394 31.9919 17.4818C31.9488 17.4171 31.9128 17.3703 31.884 17.3415C31.8264 17.2839 31.758 17.2479 31.6789 17.2335C31.6069 17.212 31.5349 17.1724 31.463 17.1148C31.427 17.0932 31.4018 17.0608 31.3874 17.0176C31.3802 16.9745 31.355 16.9349 31.3118 16.8989C31.2758 16.8773 31.2399 16.8701 31.2039 16.8773C31.1679 16.8773 31.1391 16.8593 31.1175 16.8233C31.0887 16.8017 31.0635 16.7657 31.042 16.7154C31.0276 16.665 31.0096 16.6146 30.988 16.5642C30.9664 16.5067 30.9376 16.4563 30.9016 16.4131C30.8728 16.3699 30.826 16.3447 30.7613 16.3375C30.7613 16.2296 30.7325 16.1324 30.6749 16.0461C30.6173 15.9525 30.5706 15.859 30.5346 15.7654C30.4986 15.6646 30.4734 15.5675 30.459 15.4739C30.4518 15.3732 30.4266 15.2796 30.3834 15.1932C30.3475 15.1069 30.3043 15.0313 30.2539 14.9665C30.2035 14.9018 30.1531 14.8406 30.1028 14.783C30.0596 14.7255 30.02 14.6607 29.984 14.5887C29.9552 14.5096 29.9408 14.416 29.9408 14.308C29.9408 14.1497 29.9552 13.995 29.984 13.8438C30.0128 13.6927 30.0272 13.538 30.0272 13.3797C30.0272 13.2141 30.002 13.0486 29.9516 12.8831C29.9013 12.7175 29.8761 12.5448 29.8761 12.3649C29.8761 12.0267 29.9157 11.6956 29.9948 11.3717C30.074 11.0407 30.1136 10.706 30.1136 10.3678C30.1136 10.2239 30.0956 10.0871 30.0596 9.95758C30.0236 9.82084 30.0056 9.6805 30.0056 9.53656C30.0056 9.43581 30.0236 9.33505 30.0596 9.2343C30.0956 9.13354 30.1603 9.04718 30.2539 8.97521C30.2683 8.95362 30.2719 8.92843 30.2647 8.89965C30.2575 8.87086 30.2539 8.84567 30.2539 8.82408C30.2539 8.80249 30.2647 8.75931 30.2863 8.69454C30.3079 8.62977 30.3295 8.5614 30.3511 8.48943C30.3798 8.41026 30.405 8.3311 30.4266 8.25193C30.4482 8.17277 30.4626 8.1116 30.4698 8.06841C30.477 7.99645 30.4914 7.93887 30.513 7.89569C30.5418 7.85251 30.5742 7.81653 30.6101 7.78774C30.6533 7.75176 30.6929 7.71937 30.7289 7.69058C30.7649 7.6546 30.7973 7.61142 30.826 7.56104C30.8836 7.46029 30.9052 7.35593 30.8908 7.24798C30.8764 7.13283 30.898 7.02488 30.9556 6.92412L31.1175 6.85935C31.1679 6.7442 31.2075 6.66504 31.2363 6.62186C31.2651 6.57868 31.2902 6.54989 31.3118 6.5355C31.3334 6.51391 31.355 6.49951 31.3766 6.49232C31.3982 6.48512 31.427 6.45993 31.463 6.41675C31.4846 6.39516 31.4954 6.36637 31.4954 6.33039C31.4954 6.28721 31.5061 6.24762 31.5277 6.21164C31.5637 6.15407 31.6213 6.10729 31.7005 6.0713C31.7796 6.03532 31.8408 5.98854 31.884 5.93097C31.9272 5.87339 31.9595 5.81222 31.9811 5.74745C32.0099 5.67548 32.0531 5.6179 32.1107 5.57472C32.1754 5.50995 32.2654 5.45957 32.3806 5.42359C32.4957 5.38761 32.5965 5.34083 32.6828 5.28325C32.762 5.22568 32.8268 5.16451 32.8771 5.09973C32.9347 5.02777 33.0103 4.97379 33.1038 4.93781C33.1542 4.91622 33.2262 4.89103 33.3197 4.86224C33.4133 4.83345 33.5105 4.80826 33.6112 4.78667C33.7192 4.76508 33.8199 4.74709 33.9135 4.7327C34.007 4.7183 34.0826 4.71111 34.1402 4.71111C34.3057 4.71111 34.464 4.7327 34.6152 4.77588C34.7735 4.81906 34.9318 4.84065 35.0902 4.84065C35.2269 4.84065 35.3564 4.82985 35.4788 4.80826C35.6011 4.78667 35.7235 4.77588 35.8458 4.77588C36.1553 4.77588 36.4216 4.80826 36.6447 4.87304C36.875 4.93061 37.0729 5.00977 37.2384 5.11053C37.4111 5.20409 37.5623 5.30844 37.6918 5.42359C37.8285 5.53874 37.9545 5.65029 38.0696 5.75824C38.1848 5.859 38.2999 5.95256 38.4151 6.03892C38.5302 6.12528 38.6598 6.18285 38.8037 6.21164C38.8469 6.34838 38.926 6.45273 39.0412 6.5247C39.1635 6.59667 39.2751 6.67943 39.3758 6.77299C39.3902 6.88814 39.419 6.99609 39.4622 7.09685C39.5054 7.1976 39.5522 7.29836 39.6025 7.39911C39.6529 7.49267 39.7033 7.58623 39.7537 7.67979C39.8041 7.77335 39.8436 7.8741 39.8724 7.98205C39.9084 8.0972 39.9228 8.20875 39.9156 8.3167C39.9084 8.42466 39.9228 8.52901 39.9588 8.62977C40.002 8.80249 40.0595 8.97161 40.1315 9.13714C40.2035 9.29547 40.2611 9.4574 40.3042 9.62292C40.333 9.73088 40.3474 9.83883 40.3474 9.94678C40.3474 10.0547 40.3582 10.1591 40.3798 10.2598C40.423 10.4829 40.4626 10.6845 40.4985 10.8644C40.5345 11.0443 40.5525 11.2494 40.5525 11.4797ZM38.2963 11.3502C38.2963 11.2494 38.2711 11.163 38.2208 11.0911C38.1776 11.0119 38.138 10.9255 38.102 10.832C38.0229 10.6233 37.9797 10.4038 37.9725 10.1735C37.9725 9.93598 37.9401 9.70929 37.8753 9.49338C37.8321 9.34225 37.7458 9.16953 37.6162 8.97521C37.4867 8.7809 37.3392 8.59018 37.1736 8.40307C37.0081 8.21595 36.8354 8.04682 36.6555 7.89569C36.4827 7.73736 36.3244 7.62581 36.1805 7.56104L36.0833 7.40991C36.0401 7.38832 35.9862 7.37752 35.9214 7.37752C35.8566 7.37752 35.7954 7.36673 35.7379 7.34514C35.5723 7.28756 35.414 7.22999 35.2629 7.17241C35.1117 7.10764 34.9426 7.07526 34.7555 7.07526C34.5108 7.07526 34.3201 7.11484 34.1834 7.194C34.0466 7.26597 33.9279 7.34873 33.8271 7.44229C33.7264 7.52865 33.6292 7.61142 33.5356 7.69058C33.4421 7.76255 33.3197 7.79494 33.1686 7.78774C33.1686 7.90289 33.1434 8.00364 33.093 8.09001C33.0499 8.16917 32.9959 8.24474 32.9311 8.3167C32.8663 8.38867 32.8016 8.46064 32.7368 8.53261C32.672 8.60458 32.6252 8.68734 32.5965 8.7809C32.5821 8.83847 32.5641 8.94642 32.5425 9.10475C32.5281 9.26308 32.5137 9.43941 32.4993 9.63372C32.4849 9.82084 32.4741 10.0008 32.4669 10.1735C32.4597 10.3462 32.4561 10.4721 32.4561 10.5513C32.4561 10.5873 32.4489 10.6233 32.4345 10.6593C32.4201 10.6952 32.4057 10.7312 32.3914 10.7672C32.377 10.9759 32.3662 11.1882 32.359 11.4041C32.3518 11.6128 32.3482 11.8215 32.3482 12.0303C32.3482 12.1094 32.359 12.2318 32.3806 12.3973C32.4021 12.5556 32.4309 12.7391 32.4669 12.9478C32.5029 13.1494 32.5425 13.3653 32.5857 13.5956C32.6288 13.8187 32.672 14.031 32.7152 14.2325C32.7656 14.434 32.8124 14.6175 32.8555 14.783C32.8987 14.9414 32.9383 15.0565 32.9743 15.1285C33.0103 15.2076 33.0535 15.2688 33.1038 15.312C33.1542 15.3552 33.1974 15.4128 33.2334 15.4847C33.255 15.5207 33.2658 15.5567 33.2658 15.5927C33.2658 15.6287 33.2838 15.6646 33.3197 15.7006C33.3917 15.7798 33.4781 15.841 33.5788 15.8841C33.6868 15.9273 33.7875 15.9849 33.8811 16.0569C33.9962 16.0857 34.079 16.1252 34.1294 16.1756C34.1798 16.2188 34.2337 16.2656 34.2913 16.3159C34.3561 16.3591 34.4388 16.3987 34.5396 16.4347C34.6476 16.4635 34.8167 16.4779 35.047 16.4779C35.1621 16.4779 35.2341 16.4635 35.2629 16.4347C35.2989 16.4059 35.36 16.3735 35.4464 16.3375C35.5256 16.3016 35.6047 16.2836 35.6839 16.2836C35.7631 16.2836 35.8314 16.2728 35.889 16.2512C36.0113 16.1216 36.1553 15.9993 36.3208 15.8841C36.4935 15.769 36.6303 15.6359 36.731 15.4847C36.767 15.4343 36.7814 15.384 36.7742 15.3336C36.767 15.2832 36.7814 15.2364 36.8174 15.1932C36.839 15.1573 36.8714 15.1357 36.9145 15.1285C36.9577 15.1213 36.9901 15.0997 37.0117 15.0637C37.1125 14.9198 37.1844 14.7542 37.2276 14.5671C37.278 14.3728 37.3535 14.1965 37.4543 14.0382C37.4975 13.959 37.5587 13.8942 37.6378 13.8438C37.717 13.7863 37.7746 13.7107 37.8105 13.6171C37.8393 13.538 37.8609 13.448 37.8753 13.3473C37.8897 13.2465 37.8969 13.1422 37.8969 13.0342C37.9041 12.9263 37.9077 12.8183 37.9077 12.7104C37.9149 12.6024 37.9257 12.5016 37.9401 12.4081C37.9545 12.3289 37.9797 12.2426 38.0157 12.149C38.0588 12.0482 38.0984 11.9511 38.1344 11.8575C38.1776 11.7568 38.2136 11.6632 38.2424 11.5769C38.2783 11.4833 38.2963 11.4077 38.2963 11.3502ZM56.972 6.06051C56.972 6.16126 56.9576 6.26202 56.9288 6.36277C56.9001 6.45633 56.8857 6.55349 56.8857 6.65424C56.8857 6.73341 56.8965 6.80897 56.9181 6.88094C56.9396 6.94571 56.9504 7.01768 56.9504 7.09685C56.9504 7.17601 56.9396 7.25877 56.9181 7.34514C56.8965 7.4243 56.8857 7.50347 56.8857 7.58263C56.8857 7.78414 56.8965 7.98205 56.9181 8.17637C56.9396 8.36348 56.9504 8.5506 56.9504 8.73772C56.9504 8.86726 56.9396 8.97881 56.9181 9.07237C56.9037 9.16593 56.8857 9.25229 56.8641 9.33145C56.8425 9.41062 56.8209 9.48618 56.7993 9.55815C56.7777 9.63012 56.7633 9.70929 56.7561 9.79565C56.7273 10.0331 56.7129 10.2886 56.7129 10.5621C56.7201 10.8356 56.7129 11.1091 56.6914 11.3825C56.6698 11.6488 56.623 11.9079 56.551 12.1598C56.479 12.4045 56.3531 12.6204 56.1732 12.8075C56.1876 12.8651 56.1948 12.9227 56.1948 12.9802C56.1948 13.0306 56.1948 13.0882 56.1948 13.153C56.1948 13.2753 56.1876 13.3976 56.1732 13.52C56.166 13.6423 56.1444 13.7575 56.1084 13.8654C56.0868 13.9302 56.0508 13.9914 56.0005 14.049C55.9501 14.0993 55.9141 14.1569 55.8925 14.2217C55.8133 14.4232 55.7594 14.6283 55.7306 14.837C55.709 15.0385 55.6658 15.2364 55.601 15.4307C55.5794 15.5027 55.5471 15.5639 55.5039 15.6143C55.4607 15.6646 55.4211 15.7222 55.3851 15.787C55.3563 15.859 55.3384 15.9309 55.3312 16.0029C55.3312 16.0677 55.324 16.136 55.3096 16.208C55.3024 16.2728 55.2844 16.3375 55.2556 16.4023C55.234 16.4599 55.1872 16.5211 55.1153 16.5858C55.0793 16.6506 55.0649 16.7226 55.0721 16.8017C55.0793 16.8737 55.0649 16.9421 55.0289 17.0068C54.9857 17.1292 54.9281 17.2479 54.8562 17.3631C54.7914 17.471 54.7302 17.5862 54.6726 17.7085C54.6583 17.7517 54.6367 17.8093 54.6079 17.8813C54.5863 17.946 54.5611 18.0144 54.5323 18.0864C54.5107 18.1655 54.4855 18.2339 54.4567 18.2915C54.4352 18.3562 54.4136 18.3994 54.392 18.421C54.3488 18.4786 54.3092 18.5182 54.2732 18.5398C54.2372 18.5614 54.2013 18.5829 54.1653 18.6045C54.1365 18.6261 54.1041 18.6585 54.0681 18.7017C54.0393 18.7449 54.0069 18.8204 53.971 18.9284C53.9206 18.9644 53.8522 18.986 53.7659 18.9932C53.6795 19.0004 53.6075 19.0219 53.5499 19.0579C53.5068 19.0867 53.4744 19.1155 53.4528 19.1443C53.4312 19.1731 53.4096 19.1983 53.388 19.2199C53.3736 19.2414 53.352 19.2558 53.3232 19.263C53.2945 19.2774 53.2513 19.2846 53.1937 19.2846H53.0858C52.9418 19.2918 52.8087 19.2666 52.6863 19.2091C52.5712 19.1515 52.456 19.0831 52.3409 19.004C52.2329 18.932 52.1214 18.8564 52.0062 18.7773C51.8911 18.7053 51.7651 18.6585 51.6284 18.6369C51.4845 18.3922 51.3693 18.1439 51.283 17.892C51.1966 17.6402 51.0958 17.3883 50.9807 17.1364C50.9231 17.0284 50.8619 16.9277 50.7972 16.8341C50.7324 16.7406 50.6712 16.647 50.6137 16.5534C50.5561 16.4599 50.5057 16.3627 50.4625 16.262C50.4265 16.154 50.4085 16.0317 50.4085 15.8949C50.4085 15.7654 50.4301 15.6359 50.4733 15.5063C50.4157 15.4415 50.3474 15.312 50.2682 15.1177C50.1962 14.9234 50.1279 14.7183 50.0631 14.5024C49.9983 14.2793 49.9444 14.0669 49.9012 13.8654C49.858 13.6567 49.8364 13.5092 49.8364 13.4228C49.8364 13.3869 49.822 13.3473 49.7932 13.3041C49.7644 13.2537 49.732 13.1997 49.6961 13.1422C49.6673 13.0846 49.6421 13.0234 49.6205 12.9586C49.5989 12.8867 49.5953 12.8075 49.6097 12.7211C49.5089 12.8075 49.437 12.9047 49.3938 13.0126C49.3578 13.1206 49.3326 13.2357 49.3182 13.3581C49.311 13.4804 49.3038 13.6064 49.2966 13.7359C49.2966 13.8582 49.2822 13.977 49.2535 14.0921C49.2319 14.1785 49.1995 14.2613 49.1563 14.3404C49.1203 14.4196 49.0807 14.4988 49.0376 14.5779C48.9728 14.7506 48.926 14.9306 48.8972 15.1177C48.8684 15.2976 48.8252 15.4775 48.7677 15.6574C48.7317 15.7222 48.6921 15.7906 48.6489 15.8626C48.6057 15.9273 48.5734 15.9993 48.5518 16.0785C48.5374 16.136 48.5338 16.1864 48.541 16.2296C48.5482 16.2728 48.5518 16.3231 48.5518 16.3807C48.5518 16.4095 48.5446 16.4383 48.5302 16.4671C48.5158 16.4887 48.5014 16.5175 48.487 16.5534C48.4726 16.5894 48.4582 16.6362 48.4438 16.6938C48.4294 16.7442 48.4222 16.8125 48.4222 16.8989C48.4222 16.9565 48.397 17.032 48.3467 17.1256C48.3035 17.2191 48.2531 17.3235 48.1955 17.4386C48.1452 17.5466 48.0948 17.6618 48.0444 17.7841C48.0012 17.9064 47.9796 18.0288 47.9796 18.1511C47.8717 18.1799 47.7781 18.2303 47.6989 18.3023C47.627 18.3742 47.5622 18.4534 47.5046 18.5398C47.4543 18.6261 47.4039 18.7161 47.3535 18.8096C47.3103 18.9032 47.2599 18.986 47.2024 19.0579C47.1808 19.0579 47.1628 19.0543 47.1484 19.0471C47.1412 19.0399 47.1304 19.0363 47.116 19.0363C47.0368 19.0363 46.9685 19.0651 46.9109 19.1227C46.8605 19.1875 46.7886 19.2199 46.695 19.2199C46.5942 19.2199 46.4971 19.2055 46.4035 19.1767C46.3172 19.1551 46.2236 19.1443 46.1229 19.1443C46.0293 19.1443 45.9357 19.1551 45.8422 19.1767C45.7558 19.2055 45.6623 19.2199 45.5615 19.2199C45.4464 19.2199 45.3456 19.1839 45.2592 19.1119C45.1801 19.0399 45.1009 18.9608 45.0217 18.8744C44.9426 18.788 44.8598 18.7053 44.7735 18.6261C44.6943 18.5542 44.5971 18.5146 44.482 18.5074V18.4426C44.482 18.3562 44.446 18.2915 44.374 18.2483C44.3021 18.2051 44.2409 18.1439 44.1905 18.0648C44.1329 17.9784 44.097 17.8777 44.0826 17.7625C44.0682 17.6402 44.0394 17.5286 43.9962 17.4279C43.9386 17.3343 43.8703 17.2515 43.7911 17.1796C43.7119 17.1076 43.6543 17.0284 43.6184 16.9421C43.604 16.8845 43.604 16.8305 43.6184 16.7801C43.6328 16.7226 43.64 16.6722 43.64 16.629L43.6184 16.5858L43.4888 16.4995C43.4456 16.3987 43.4205 16.2908 43.4133 16.1756C43.4061 16.0533 43.3557 15.9453 43.2621 15.8518C43.2765 15.8158 43.2873 15.7798 43.2945 15.7438C43.3089 15.7078 43.3161 15.6718 43.3161 15.6359C43.3161 15.4271 43.2693 15.2256 43.1758 15.0313C43.0894 14.837 43.0246 14.6391 42.9814 14.4376C42.9527 14.2865 42.9347 14.1389 42.9275 13.995C42.9275 13.8438 42.9275 13.6963 42.9275 13.5524C42.9275 13.4012 42.9203 13.2501 42.9059 13.099C42.8987 12.9478 42.8807 12.7967 42.8519 12.6456C42.8231 12.5592 42.7871 12.4765 42.744 12.3973C42.7008 12.3181 42.6612 12.239 42.6252 12.1598C42.5892 12.059 42.5676 11.9619 42.5604 11.8683C42.5532 11.7676 42.5316 11.674 42.4957 11.5877C42.4597 11.5085 42.4093 11.4401 42.3445 11.3825C42.287 11.3178 42.2402 11.2386 42.2042 11.145C42.2186 11.0587 42.2258 10.9687 42.2258 10.8752C42.2258 10.7816 42.2294 10.6881 42.2366 10.5945C42.2438 10.5009 42.2618 10.4146 42.2906 10.3354C42.3193 10.249 42.3661 10.1663 42.4309 10.0871C42.3661 10.0367 42.3193 9.96837 42.2906 9.88201C42.2618 9.78845 42.2438 9.69129 42.2366 9.59054C42.2294 9.48259 42.2258 9.38183 42.2258 9.28827C42.2258 9.18752 42.2186 9.10116 42.2042 9.02919C42.161 8.84927 42.0998 8.68374 42.0207 8.53261C41.9487 8.38148 41.9127 8.21235 41.9127 8.02523C41.9127 7.98925 41.9307 7.94967 41.9667 7.90649C42.0027 7.86331 42.0315 7.83092 42.0531 7.80933C42.0675 7.76615 42.0711 7.72657 42.0639 7.69058C42.0567 7.6546 42.0531 7.61142 42.0531 7.56104V7.51786C42.0603 7.46748 42.0818 7.36673 42.1178 7.21559C42.161 7.06446 42.2078 6.90613 42.2582 6.74061C42.3085 6.56788 42.3553 6.41315 42.3985 6.27641C42.4417 6.13967 42.4741 6.05331 42.4957 6.01733C42.5964 5.88059 42.7188 5.79063 42.8627 5.74745C43.0066 5.70427 43.1578 5.68268 43.3161 5.68268C43.4456 5.68268 43.5716 5.68627 43.6939 5.69347C43.8163 5.70067 43.9386 5.71146 44.061 5.72586C44.2121 5.91297 44.3165 6.04611 44.374 6.12528C44.4316 6.20444 44.4712 6.27641 44.4928 6.34118C44.5144 6.40595 44.5288 6.48512 44.536 6.57868C44.5503 6.66504 44.5827 6.80897 44.6331 7.01049C44.6547 7.12563 44.6835 7.21559 44.7195 7.28037C44.7555 7.34514 44.7735 7.4315 44.7735 7.53945C44.7735 7.6618 44.7627 7.78054 44.7411 7.89569C44.7195 8.01084 44.7087 8.12959 44.7087 8.25193C44.7087 8.74851 44.7447 9.2379 44.8166 9.72008C44.8886 10.2023 44.9246 10.6916 44.9246 11.1882C44.9246 11.3034 44.9282 11.3969 44.9354 11.4689C44.9498 11.5409 44.9642 11.6056 44.9786 11.6632C45.0001 11.7208 45.0217 11.782 45.0433 11.8467C45.0649 11.9043 45.0901 11.9799 45.1189 12.0734C45.1549 12.1958 45.1693 12.3181 45.1621 12.4405C45.1549 12.5628 45.1657 12.6852 45.1945 12.8075C45.2161 12.9083 45.252 13.0018 45.3024 13.0882C45.3528 13.1673 45.3888 13.2573 45.4104 13.3581C45.4392 13.4876 45.4571 13.6171 45.4643 13.7467C45.4787 13.8762 45.4967 14.0022 45.5183 14.1245C45.5399 14.2469 45.5723 14.3656 45.6155 14.4808C45.6659 14.5959 45.7378 14.7003 45.8314 14.7938C45.8026 14.8514 45.7882 14.8946 45.7882 14.9234C45.7882 15.0241 45.8206 15.1141 45.8854 15.1932C45.9501 15.2724 46.0041 15.3516 46.0473 15.4307C46.0617 15.4307 46.0689 15.4343 46.0689 15.4415C46.0761 15.4487 46.0869 15.4523 46.1013 15.4523C46.1588 15.4523 46.1948 15.4235 46.2092 15.366C46.2308 15.3012 46.2524 15.2508 46.274 15.2148C46.3963 15.0349 46.5007 14.8046 46.587 14.5239C46.6734 14.2361 46.7562 13.9518 46.8353 13.6711C46.9145 13.3904 46.9901 13.135 47.062 12.9047C47.1412 12.6744 47.2312 12.5232 47.3319 12.4513C47.3535 12.3001 47.3643 12.1382 47.3643 11.9655C47.3643 11.7856 47.3679 11.6092 47.3751 11.4365C47.3895 11.2566 47.4183 11.0875 47.4615 10.9291C47.5046 10.7708 47.5802 10.6305 47.6882 10.5081C47.7097 10.0691 47.7745 9.70569 47.8825 9.41782C47.9904 9.12275 48.0984 8.85287 48.2063 8.60817C48.3215 8.35629 48.415 8.0972 48.487 7.83092C48.5662 7.55744 48.5878 7.21919 48.5518 6.81617C48.6237 6.72981 48.6957 6.63985 48.7677 6.54629C48.8396 6.44554 48.9152 6.35917 48.9944 6.28721C49.0807 6.20804 49.1743 6.14327 49.275 6.09289C49.383 6.04252 49.5017 6.01733 49.6313 6.01733C49.8184 6.01733 49.9767 6.04971 50.1063 6.11448C50.2358 6.17925 50.3438 6.26562 50.4301 6.37357C50.5237 6.48152 50.6065 6.60387 50.6784 6.74061C50.7504 6.87734 50.8224 7.01768 50.8943 7.16162C50.9807 7.34154 51.0239 7.55384 51.0239 7.79853C51.0239 8.04323 51.0239 8.26633 51.0239 8.46784C51.0239 8.62617 51.0347 8.7665 51.0563 8.88885C51.0778 9.004 51.103 9.11915 51.1318 9.2343C51.1678 9.34225 51.2038 9.4538 51.2398 9.56895C51.2758 9.6841 51.3081 9.81364 51.3369 9.95758C51.3585 10.1087 51.3657 10.2634 51.3585 10.4218C51.3513 10.5729 51.3657 10.7276 51.4017 10.886C51.4449 11.0803 51.5097 11.271 51.596 11.4581C51.6824 11.638 51.7579 11.8215 51.8227 12.0087C51.9235 12.2893 52.0134 12.5844 52.0926 12.8939C52.1718 13.2033 52.2509 13.5128 52.3301 13.8223C52.4093 14.1317 52.492 14.4376 52.5784 14.7398C52.6719 15.0349 52.7799 15.312 52.9022 15.5711C52.9886 15.5495 53.0714 15.4559 53.1505 15.2904C53.2369 15.1177 53.3089 14.9234 53.3664 14.7075C53.424 14.4916 53.4708 14.2829 53.5068 14.0813C53.5428 13.8798 53.5571 13.7359 53.5499 13.6495C53.6795 13.5344 53.7623 13.394 53.7982 13.2285C53.8342 13.063 53.845 12.8939 53.8306 12.7211C53.9242 12.6204 54.0069 12.5052 54.0789 12.3757C54.1509 12.2462 54.1869 12.1022 54.1869 11.9439C54.1869 11.8287 54.1725 11.7172 54.1437 11.6092C54.1149 11.5013 54.1005 11.3897 54.1005 11.2746C54.1005 11.1235 54.1221 10.9795 54.1653 10.8428C54.2157 10.6988 54.266 10.5621 54.3164 10.4326C54.374 10.303 54.4244 10.1771 54.4675 10.0547C54.5179 9.93239 54.5431 9.81724 54.5431 9.70929C54.5431 9.60853 54.5323 9.50778 54.5107 9.40702C54.4891 9.29907 54.4783 9.19471 54.4783 9.09396C54.5215 9.05078 54.5431 9.004 54.5431 8.95362C54.5431 8.89605 54.5287 8.83847 54.4999 8.7809C54.4711 8.71613 54.4567 8.65136 54.4567 8.58658C54.4567 8.44985 54.4819 8.3203 54.5323 8.19796C54.5827 8.06841 54.6079 7.93887 54.6079 7.80933C54.6079 7.70857 54.5863 7.61861 54.5431 7.53945C54.4999 7.45309 54.4783 7.35953 54.4783 7.25877C54.4783 7.17961 54.4891 7.10764 54.5107 7.04287C54.5323 6.9709 54.5431 6.89534 54.5431 6.81617C54.5431 6.72261 54.5323 6.63625 54.5107 6.55709C54.4891 6.47792 54.4783 6.39516 54.4783 6.3088C54.4783 6.19365 54.4891 6.0785 54.5107 5.96335C54.5395 5.84101 54.5683 5.72226 54.5971 5.60711C54.6331 5.48476 54.6619 5.36602 54.6834 5.25087C54.7122 5.12852 54.7302 5.00977 54.7374 4.89463C54.8454 4.84425 54.9461 4.78667 55.0397 4.7219C55.1332 4.64993 55.2268 4.58156 55.3204 4.51679C55.4211 4.45202 55.5219 4.39805 55.6226 4.35487C55.7234 4.31168 55.8349 4.29009 55.9573 4.29009C56.0005 4.29009 56.0364 4.29009 56.0652 4.29009C56.1012 4.29009 56.1372 4.29729 56.1732 4.31168C56.2523 4.40524 56.3423 4.47361 56.4431 4.51679C56.551 4.55997 56.6338 4.61035 56.6914 4.66793C56.6914 4.79027 56.7057 4.90902 56.7345 5.02417C56.7633 5.13932 56.7957 5.25447 56.8317 5.36961C56.8677 5.48476 56.9001 5.59991 56.9288 5.71506C56.9576 5.83021 56.972 5.94536 56.972 6.06051ZM70.8978 14.5995C70.8978 14.7578 70.869 14.927 70.8115 15.1069C70.7611 15.2796 70.6855 15.4487 70.5848 15.6143C70.4912 15.7726 70.3797 15.9201 70.2501 16.0569C70.1278 16.1864 69.991 16.2872 69.8399 16.3591C69.7607 16.5606 69.6456 16.7442 69.4945 16.9097C69.3505 17.0752 69.2246 17.2479 69.1166 17.4279C68.9583 17.4926 68.8108 17.579 68.674 17.6869C68.5445 17.7877 68.4149 17.892 68.2854 18C68.1559 18.1151 68.0263 18.2231 67.8968 18.3239C67.7672 18.4318 67.6269 18.5146 67.4758 18.5721C67.3894 18.6081 67.2958 18.6225 67.1951 18.6153C67.1015 18.6081 67.0044 18.6153 66.9036 18.6369C66.8029 18.6657 66.7021 18.7017 66.6013 18.7449C66.5006 18.7952 66.3998 18.842 66.2991 18.8852C66.1983 18.9356 66.0976 18.9752 65.9968 19.004C65.8961 19.0399 65.7917 19.0579 65.6838 19.0579C65.5758 19.0579 65.4714 19.0363 65.3707 18.9932C65.2771 18.95 65.1692 18.9284 65.0468 18.9284C64.9461 18.9284 64.8489 18.9392 64.7554 18.9608C64.6618 18.9824 64.5575 18.9932 64.4423 18.9932C64.3559 18.9932 64.2552 18.9788 64.14 18.95C64.0321 18.9284 63.9241 18.896 63.8162 18.8528C63.7082 18.8096 63.6039 18.7557 63.5031 18.6909C63.4096 18.6333 63.334 18.5721 63.2764 18.5074H63.1469C62.9598 18.5146 62.8014 18.4822 62.6719 18.4102C62.5423 18.3454 62.4164 18.2699 62.2941 18.1835C62.1789 18.0972 62.0602 18.0144 61.9378 17.9352C61.8155 17.8561 61.6643 17.8057 61.4844 17.7841C61.4412 17.6042 61.3513 17.471 61.2145 17.3847C61.0778 17.2983 60.9303 17.2155 60.7719 17.1364C60.736 17.0716 60.7036 17.0068 60.6748 16.9421C60.6532 16.8701 60.6424 16.7945 60.6424 16.7154C60.5344 16.6866 60.4373 16.6398 60.3509 16.575C60.2718 16.5031 60.1962 16.4275 60.1242 16.3483C60.0595 16.262 59.9947 16.1756 59.9299 16.0892C59.8651 16.0029 59.7932 15.9237 59.714 15.8518C59.714 15.8158 59.7176 15.7834 59.7248 15.7546C59.732 15.7186 59.7356 15.679 59.7356 15.6359C59.7356 15.5351 59.714 15.4523 59.6708 15.3876C59.6276 15.3156 59.5773 15.2508 59.5197 15.1932C59.4621 15.1357 59.4009 15.0781 59.3362 15.0205C59.2786 14.9558 59.2354 14.8802 59.2066 14.7938C59.1706 14.7147 59.1455 14.6247 59.1311 14.5239C59.1239 14.416 59.1167 14.308 59.1095 14.2001C59.1095 14.0921 59.1059 13.9842 59.0987 13.8762C59.0987 13.7611 59.0915 13.6603 59.0771 13.574C59.0411 13.466 58.9871 13.3617 58.9152 13.2609C58.8504 13.153 58.8072 13.045 58.7856 12.9371C58.7496 12.8219 58.728 12.6924 58.7208 12.5484C58.7137 12.4045 58.7101 12.2606 58.7101 12.1166C58.7173 11.9655 58.7244 11.8179 58.7316 11.674C58.7388 11.5229 58.7424 11.3825 58.7424 11.253C58.7424 11.0443 58.7137 10.8392 58.6561 10.6377C58.5985 10.429 58.5697 10.2239 58.5697 10.0223C58.5697 9.85682 58.5913 9.66251 58.6345 9.43941C58.6777 9.2163 58.728 9.02559 58.7856 8.86726C58.8 8.82408 58.8216 8.7809 58.8504 8.73772C58.8792 8.69454 58.9008 8.64416 58.9152 8.58658C58.9511 8.44265 58.9655 8.29152 58.9583 8.13319C58.9511 7.96766 58.9619 7.80933 58.9907 7.6582C59.0123 7.52146 59.0483 7.39192 59.0987 7.26957C59.1563 7.14003 59.1922 7.01049 59.2066 6.88094C59.2282 6.69383 59.239 6.50311 59.239 6.3088C59.239 6.10729 59.2714 5.91297 59.3362 5.72586C59.4081 5.57472 59.5089 5.43798 59.6384 5.31564C59.7752 5.1861 59.8687 5.06735 59.9191 4.9594C59.9983 4.77228 60.0882 4.58516 60.189 4.39805C60.2898 4.21093 60.3473 4.01302 60.3617 3.80431C60.5057 3.67477 60.6892 3.53803 60.9123 3.39409C61.1354 3.25016 61.3585 3.10622 61.5816 2.96228C61.8119 2.81115 62.0242 2.66002 62.2185 2.50889C62.4128 2.35056 62.5531 2.19223 62.6395 2.0339H62.7259C62.7475 2.0339 62.8374 2.00871 62.9957 1.95833C63.1541 1.90076 63.3268 1.83958 63.5139 1.77481C63.701 1.70284 63.8738 1.63807 64.0321 1.5805C64.1976 1.51573 64.2984 1.47615 64.3344 1.46175C64.3344 1.44016 64.3416 1.42577 64.3559 1.41857C64.3703 1.40418 64.3847 1.39698 64.3991 1.39698C64.5215 1.39698 64.7014 1.40058 64.9389 1.40778C65.1764 1.41497 65.4211 1.42577 65.673 1.44016C65.932 1.44736 66.1731 1.46175 66.3962 1.48334C66.6265 1.49774 66.7957 1.51213 66.9036 1.52652C66.9972 1.54092 67.0871 1.5697 67.1735 1.61288C67.267 1.65607 67.357 1.69925 67.4434 1.74243C67.5297 1.77841 67.6161 1.8144 67.7025 1.85038C67.796 1.87917 67.8896 1.88996 67.9831 1.88276C68.0983 2.0267 68.217 2.12746 68.3394 2.18503C68.4617 2.23541 68.6021 2.30378 68.7604 2.39014C68.818 2.42612 68.8971 2.50169 68.9979 2.61684C69.0986 2.73199 69.1886 2.81835 69.2678 2.87592C69.3469 2.94069 69.4477 2.99827 69.57 3.04865C69.6924 3.09902 69.7823 3.16739 69.8399 3.25376C69.8831 3.31853 69.9263 3.40489 69.9694 3.51284C70.0198 3.62079 70.063 3.73594 70.099 3.85829C70.135 3.97344 70.1638 4.08858 70.1854 4.20373C70.2069 4.31168 70.2177 4.40884 70.2177 4.4952C70.2177 4.65353 70.189 4.81546 70.1314 4.98099C70.081 5.14651 70.0054 5.29765 69.9047 5.43439C69.8039 5.56393 69.678 5.67188 69.5268 5.75824C69.3829 5.8446 69.221 5.88778 69.0411 5.88778C68.8611 5.88778 68.7136 5.859 68.5985 5.80142C68.4833 5.74385 68.3826 5.67188 68.2962 5.58552C68.217 5.49196 68.1415 5.38761 68.0695 5.27246C67.9975 5.15011 67.9184 5.02417 67.832 4.89463C67.7744 4.80107 67.7061 4.7327 67.6269 4.68952C67.5477 4.64634 67.4758 4.59596 67.411 4.53838C67.3462 4.46642 67.2886 4.39805 67.2383 4.33328C67.1951 4.26131 67.1339 4.20373 67.0547 4.16055C66.99 4.13176 66.8964 4.11017 66.7741 4.09578C66.6589 4.07419 66.533 4.0598 66.3962 4.0526C66.2667 4.03821 66.1372 4.02381 66.0076 4.00942C65.8781 3.99503 65.7701 3.98063 65.6838 3.96624C65.6046 3.93745 65.5254 3.91226 65.4463 3.89067C65.3743 3.86188 65.2987 3.84749 65.2196 3.84749C65.1764 3.84749 65.1368 3.85109 65.1008 3.85829C65.0648 3.86548 65.0252 3.87628 64.9821 3.89067C64.9245 3.94825 64.8777 3.96984 64.8417 3.95544C64.8129 3.94105 64.7698 3.93385 64.7122 3.93385C64.6258 3.93385 64.5395 3.96264 64.4531 4.02021C64.3739 4.07059 64.2552 4.09578 64.0969 4.09578H64.0537C63.9889 4.19654 63.9025 4.2793 63.7946 4.34407C63.6866 4.40884 63.5715 4.47001 63.4491 4.52759C63.334 4.58516 63.2188 4.64634 63.1037 4.71111C62.9957 4.77588 62.9058 4.85864 62.8338 4.9594C62.7978 5.01697 62.7762 5.07455 62.769 5.13212C62.7619 5.18969 62.7403 5.24727 62.7043 5.30484C62.6035 5.46317 62.492 5.6179 62.3696 5.76904C62.2545 5.91297 62.1501 6.0677 62.0566 6.23323C61.9702 6.39876 61.8838 6.56069 61.7975 6.71901C61.7111 6.87015 61.6068 7.01768 61.4844 7.16162C61.4988 7.212 61.506 7.25877 61.506 7.30196C61.506 7.34514 61.506 7.38832 61.506 7.4315C61.506 7.58263 61.4916 7.71937 61.4628 7.84172C61.434 7.95686 61.3981 8.07561 61.3549 8.19796C61.3189 8.3203 61.2865 8.45704 61.2577 8.60817C61.2289 8.75931 61.2145 8.93563 61.2145 9.13714C61.2145 9.25949 61.1894 9.36024 61.139 9.43941C61.0886 9.51857 61.0634 9.60133 61.0634 9.6877C61.0634 9.77406 61.067 9.91439 61.0742 10.1087C61.0886 10.2958 61.1066 10.4937 61.1282 10.7024C61.1498 10.904 61.175 11.0947 61.2037 11.2746C61.2325 11.4545 61.2613 11.5805 61.2901 11.6524C61.3045 11.71 61.3261 11.7604 61.3549 11.8036C61.3837 11.8395 61.4053 11.8863 61.4196 11.9439C61.4556 12.1094 61.47 12.2749 61.4628 12.4405C61.4556 12.606 61.4844 12.7715 61.5492 12.9371L61.7003 13.0882C61.7363 13.1889 61.7507 13.2933 61.7435 13.4012C61.7435 13.5092 61.7543 13.6207 61.7759 13.7359C61.8623 13.7719 61.9054 13.8115 61.9054 13.8546C61.9054 13.8978 61.9054 13.9518 61.9054 14.0166C61.9054 14.0813 61.9342 14.1533 61.9918 14.2325C62.0494 14.3116 62.1105 14.398 62.1753 14.4916C62.2473 14.5779 62.3121 14.6715 62.3696 14.7722C62.4344 14.873 62.4704 14.9773 62.4776 15.0853C62.7007 15.2508 62.8734 15.402 62.9957 15.5387C63.1253 15.6682 63.2512 15.7834 63.3736 15.8841C63.5031 15.9849 63.6507 16.0713 63.8162 16.1432C63.9889 16.208 64.2372 16.2584 64.5611 16.2944C64.6186 16.2944 64.6762 16.3052 64.7338 16.3267C64.7914 16.3483 64.8489 16.3591 64.9065 16.3591C65.0001 16.3591 65.0828 16.3411 65.1548 16.3052C65.2268 16.2692 65.3059 16.2296 65.3923 16.1864C65.4858 16.1432 65.5974 16.1036 65.7269 16.0677C65.8565 16.0317 66.0256 16.0137 66.2343 16.0137C66.3135 16.0137 66.3603 15.9849 66.3746 15.9273C66.389 15.8697 66.425 15.823 66.4826 15.787C66.5114 15.7726 66.5618 15.7546 66.6337 15.733C66.7129 15.7114 66.7993 15.6862 66.8928 15.6574C66.9936 15.6287 67.0943 15.5963 67.1951 15.5603C67.303 15.5171 67.3966 15.4739 67.4758 15.4307C67.6629 15.3228 67.8284 15.1932 67.9723 15.0421C68.1235 14.891 68.289 14.765 68.4689 14.6643C68.5337 14.434 68.6308 14.2253 68.7604 14.0382C68.8971 13.8438 69.0159 13.6459 69.1166 13.4444H69.1814C69.2462 13.4444 69.3073 13.43 69.3649 13.4012C69.4297 13.3725 69.4909 13.3401 69.5484 13.3041C69.606 13.2609 69.6636 13.2249 69.7212 13.1961C69.7859 13.1673 69.8471 13.153 69.9047 13.153C69.9694 13.153 70.0234 13.1637 70.0666 13.1853C70.117 13.2069 70.1674 13.2321 70.2177 13.2609C70.2681 13.2825 70.3185 13.3041 70.3689 13.3257C70.4264 13.3473 70.4876 13.3581 70.5524 13.3581C70.6531 13.5452 70.7359 13.7431 70.8007 13.9518C70.8655 14.1605 70.8978 14.3764 70.8978 14.5995ZM82.0493 16.4563C82.0277 16.5642 81.9989 16.6578 81.9629 16.737C81.9341 16.8089 81.9053 16.8845 81.8766 16.9637C81.855 17.0356 81.837 17.1148 81.8226 17.2012C81.8154 17.2875 81.819 17.3919 81.8334 17.5142C81.7686 17.5502 81.7218 17.6006 81.693 17.6653C81.6642 17.7229 81.6391 17.7877 81.6175 17.8597C81.6031 17.9244 81.5851 17.9928 81.5635 18.0648C81.5491 18.1367 81.5203 18.1979 81.4771 18.2483C81.3188 18.1979 81.1605 18.1763 81.0021 18.1835C80.8438 18.1907 80.6855 18.1943 80.5272 18.1943C80.3616 18.1943 80.2357 18.1799 80.1493 18.1511C80.063 18.1295 79.9586 18.0648 79.8363 17.9568C79.7499 17.8705 79.6635 17.8345 79.5772 17.8489C79.498 17.8633 79.4224 17.8669 79.3505 17.8597C79.2857 17.8525 79.2317 17.8057 79.1885 17.7193C79.1526 17.6258 79.1346 17.4386 79.1346 17.158C79.1346 17.1148 79.131 17.068 79.1238 17.0176C79.1166 16.9673 79.0914 16.9205 79.0482 16.8773C78.8611 16.9205 78.6884 16.9996 78.53 17.1148C78.3717 17.2227 78.2206 17.3379 78.0766 17.4602C77.9327 17.5754 77.7888 17.6761 77.6448 17.7625C77.5009 17.8489 77.3498 17.8849 77.1914 17.8705C77.1123 17.9496 77.0367 18.0288 76.9647 18.108C76.8928 18.1871 76.8064 18.2555 76.7057 18.3131C76.6553 18.3347 76.5689 18.3598 76.4466 18.3886C76.3314 18.4174 76.2091 18.4426 76.0795 18.4642C75.95 18.4858 75.824 18.5038 75.7017 18.5182C75.5794 18.5398 75.493 18.5506 75.4426 18.5506C75.2915 18.5506 75.1152 18.5002 74.9137 18.3994C74.7121 18.3059 74.5106 18.2051 74.3091 18.0972C74.1148 17.9892 73.9313 17.8956 73.7586 17.8165C73.5858 17.7301 73.4455 17.7013 73.3376 17.7301C73.2584 17.6653 73.2008 17.5862 73.1648 17.4926C73.1288 17.3919 73.0713 17.3019 72.9921 17.2227C72.8985 17.1436 72.7978 17.0788 72.6898 17.0284C72.5819 16.9781 72.4883 16.9025 72.4092 16.8017C72.3588 16.7298 72.3192 16.6542 72.2904 16.575C72.2688 16.4887 72.2436 16.4023 72.2148 16.3159C72.1933 16.2224 72.1645 16.1324 72.1285 16.0461C72.0997 15.9597 72.0529 15.8805 71.9882 15.8086C72.0169 15.6862 72.0349 15.5351 72.0421 15.3552C72.0493 15.1753 72.0601 14.9953 72.0745 14.8154C72.0961 14.6283 72.1285 14.4556 72.1717 14.2972C72.222 14.1389 72.3012 14.0238 72.4092 13.9518V13.8654C72.4092 13.6423 72.4451 13.4624 72.5171 13.3257C72.5891 13.1817 72.679 13.0558 72.787 12.9478C72.8949 12.8327 73.0137 12.7247 73.1432 12.624C73.2728 12.5232 73.3915 12.4009 73.4995 12.257C73.5642 12.2066 73.6326 12.1886 73.7046 12.203C73.7766 12.2102 73.8485 12.1958 73.9205 12.1598L73.9853 12.0303C74.0212 12.0159 74.0536 12.0123 74.0824 12.0195C74.1112 12.0267 74.1364 12.0303 74.158 12.0303C74.194 12.0303 74.23 12.0159 74.2659 11.9871C74.3019 11.9583 74.3379 11.9295 74.3739 11.9007C74.4099 11.8647 74.4459 11.8323 74.4818 11.8036C74.525 11.7748 74.5718 11.7604 74.6222 11.7604C74.6438 11.7604 74.669 11.7676 74.6977 11.782C74.7265 11.7892 74.7517 11.8 74.7733 11.8143C74.8237 11.7352 74.8813 11.6668 74.946 11.6092C75.018 11.5445 75.09 11.4833 75.1619 11.4257C75.2339 11.3681 75.3023 11.3106 75.367 11.253C75.439 11.1882 75.5002 11.1163 75.5506 11.0371C75.5794 11.0515 75.6225 11.0587 75.6801 11.0587C75.7449 11.0587 75.7953 11.0443 75.8312 11.0155C75.8672 10.9795 75.9032 10.9435 75.9392 10.9076C75.9824 10.8644 76.0292 10.8284 76.0795 10.7996C76.1299 10.7636 76.2055 10.7456 76.3062 10.7456C76.3278 10.7456 76.371 10.7312 76.4358 10.7024C76.5005 10.6737 76.5689 10.6413 76.6409 10.6053C76.7129 10.5621 76.7812 10.5225 76.846 10.4865C76.9108 10.4434 76.9575 10.411 76.9863 10.3894L77.1051 10.3678C77.1698 10.3678 77.231 10.3822 77.2886 10.411C77.3462 10.4326 77.4073 10.4506 77.4721 10.4649C77.5657 10.3714 77.6592 10.2814 77.7528 10.1951C77.8463 10.1087 77.9219 10.0044 77.9795 9.88201C78.073 9.85322 78.181 9.79925 78.3033 9.72008C78.4257 9.64092 78.5408 9.55096 78.6488 9.4502C78.7639 9.34945 78.8575 9.24149 78.9295 9.12634C79.0086 9.004 79.0482 8.88885 79.0482 8.7809C79.0482 8.66575 79.0158 8.5542 78.9511 8.44625C78.8935 8.33829 78.8251 8.23394 78.7459 8.13319C78.6668 8.02523 78.5876 7.91728 78.5085 7.80933C78.4293 7.70138 78.3717 7.58983 78.3357 7.47468H78.2925C78.2062 7.47468 78.127 7.4351 78.0551 7.35593C77.9903 7.26957 77.9147 7.21559 77.8284 7.194C77.7564 7.16522 77.6808 7.15082 77.6017 7.15082C77.5225 7.15082 77.4433 7.15082 77.3642 7.15082C77.285 7.15082 77.2058 7.14363 77.1267 7.12923C77.0547 7.11484 76.9863 7.08245 76.9216 7.03208C76.7776 7.06086 76.6625 7.11484 76.5761 7.194C76.4897 7.26597 76.4034 7.34154 76.317 7.4207C76.2307 7.49987 76.1299 7.56824 76.0148 7.62581C75.8996 7.67619 75.7449 7.69418 75.5506 7.67979C75.421 7.94607 75.3023 8.22315 75.1943 8.51102C75.0936 8.79889 74.9532 9.06517 74.7733 9.30986C74.7301 9.46819 74.687 9.62652 74.6438 9.78485C74.6078 9.93598 74.5358 10.0655 74.4279 10.1735C74.2839 10.2167 74.1364 10.2383 73.9853 10.2383C73.8269 10.2383 73.6506 10.2095 73.4563 10.1519C73.2692 10.0871 73.0929 10.0008 72.9273 9.8928C72.7618 9.78485 72.6215 9.65891 72.5063 9.51497C72.3984 9.36384 72.3444 9.20191 72.3444 9.02919C72.3444 8.84207 72.3804 8.65855 72.4523 8.47863C72.5315 8.29152 72.5711 8.0972 72.5711 7.89569C72.6718 7.85971 72.751 7.80213 72.8086 7.72297C72.8662 7.6438 72.9165 7.56104 72.9597 7.47468C73.0101 7.38112 73.0605 7.29476 73.1109 7.21559C73.1684 7.13643 73.244 7.07526 73.3376 7.03208V6.94571C73.3376 6.88094 73.3555 6.83416 73.3915 6.80538C73.4275 6.76939 73.4347 6.70462 73.4131 6.61106C73.7442 6.41675 74.0069 6.15407 74.2012 5.82301C74.3235 5.76544 74.4531 5.71866 74.5898 5.68268C74.7265 5.64669 74.8561 5.59631 74.9784 5.53154C75.0864 5.48836 75.1871 5.42719 75.2807 5.34802C75.3814 5.26886 75.493 5.21129 75.6153 5.1753C75.7953 5.13932 75.9716 5.13572 76.1443 5.16451C76.3242 5.1861 76.4969 5.19689 76.6625 5.19689C76.8064 5.19689 76.9288 5.1681 77.0295 5.11053C77.1375 5.05296 77.2634 5.02417 77.4073 5.02417C77.5513 5.02417 77.6952 5.03496 77.8391 5.05655C77.9831 5.07095 78.127 5.08894 78.271 5.11053C78.3357 5.12492 78.3933 5.15011 78.4437 5.1861C78.5013 5.21488 78.5624 5.24007 78.6272 5.26166C78.8503 5.30484 79.0122 5.33003 79.113 5.33723C79.2137 5.33723 79.3001 5.35162 79.3721 5.38041C79.444 5.4092 79.5196 5.46677 79.5988 5.55313C79.6779 5.6323 79.8039 5.77264 79.9766 5.97415H80.0198C80.1133 5.97415 80.2105 6.01013 80.3113 6.0821C80.412 6.14687 80.5056 6.22963 80.5919 6.33039C80.6855 6.42395 80.7646 6.5247 80.8294 6.63265C80.8942 6.73341 80.941 6.82337 80.9698 6.90253C81.0129 7.01049 81.0381 7.12923 81.0453 7.25877C81.0525 7.38112 81.0777 7.49627 81.1209 7.60422C81.1641 7.70498 81.218 7.79853 81.2828 7.8849C81.3476 7.97126 81.4088 8.05762 81.4663 8.14398C81.5311 8.23034 81.5851 8.3203 81.6283 8.41386C81.6786 8.50742 81.7038 8.60817 81.7038 8.71613C81.7038 8.86006 81.6858 9.0004 81.6499 9.13714C81.6211 9.26668 81.6067 9.39982 81.6067 9.53656C81.6067 9.65891 81.6319 9.77766 81.6822 9.8928C81.7398 10.0008 81.7686 10.1159 81.7686 10.2383C81.7686 10.3966 81.7398 10.5477 81.6822 10.6916C81.6319 10.8356 81.6067 10.9867 81.6067 11.145C81.6067 11.3538 81.6319 11.5625 81.6822 11.7712C81.7398 11.9799 81.8118 12.185 81.8981 12.3865C81.855 12.516 81.8334 12.6564 81.8334 12.8075C81.8334 13.0162 81.855 13.2213 81.8981 13.4228C81.9413 13.6171 81.9629 13.8151 81.9629 14.0166C81.9629 14.1173 81.9521 14.2109 81.9305 14.2972C81.9089 14.3836 81.8838 14.47 81.855 14.5563C81.8262 14.6427 81.801 14.7291 81.7794 14.8154C81.7578 14.9018 81.747 14.9989 81.747 15.1069C81.747 15.3372 81.7758 15.5639 81.8334 15.787C81.8909 16.0101 81.9629 16.2332 82.0493 16.4563ZM79.4908 12.9371C79.4908 12.8003 79.48 12.6708 79.4584 12.5484C79.4368 12.4261 79.426 12.2965 79.426 12.1598C79.426 12.0087 79.4009 11.8971 79.3505 11.8251C79.3001 11.7532 79.1993 11.7244 79.0482 11.7388H78.9079C78.8071 11.8323 78.7136 11.9331 78.6272 12.041C78.548 12.149 78.4509 12.2426 78.3357 12.3217C78.235 12.3865 78.1234 12.4333 78.0011 12.4621C77.8787 12.4908 77.778 12.5592 77.6988 12.6672H77.6556C77.5549 12.6672 77.4685 12.6852 77.3965 12.7211C77.3246 12.7499 77.2526 12.7823 77.1806 12.8183C77.1087 12.8471 77.0295 12.8723 76.9431 12.8939C76.864 12.9155 76.7632 12.9155 76.6409 12.8939C76.5257 13.0738 76.4142 13.2609 76.3062 13.4552C76.1983 13.6423 76.0435 13.7863 75.842 13.887L75.6585 13.8654C75.529 13.8582 75.3958 13.8726 75.2591 13.9086C75.1296 13.9446 75.0108 13.9986 74.9029 14.0705C74.8021 14.1425 74.7193 14.2325 74.6546 14.3404C74.5898 14.4484 74.5574 14.5779 74.5574 14.7291C74.5574 14.9234 74.5862 15.0709 74.6438 15.1717C74.7013 15.2652 74.7733 15.3444 74.8597 15.4092C74.946 15.4667 75.0396 15.5207 75.1403 15.5711C75.2411 15.6215 75.3347 15.7006 75.421 15.8086C75.5002 15.823 75.583 15.8266 75.6693 15.8194C75.7557 15.8122 75.842 15.8086 75.9284 15.8086C75.986 15.8086 76.0435 15.8122 76.1011 15.8194C76.1659 15.8194 76.2199 15.8374 76.2631 15.8733C76.3494 15.7942 76.4214 15.7366 76.479 15.7006C76.5365 15.6574 76.6337 15.643 76.7704 15.6574C76.936 15.4487 77.1411 15.2868 77.3858 15.1717C77.6304 15.0565 77.8751 14.9594 78.1198 14.8802C78.1342 14.801 78.1666 14.7327 78.217 14.6751C78.2746 14.6175 78.3357 14.5671 78.4005 14.5239C78.4653 14.4736 78.53 14.4304 78.5948 14.3944C78.6596 14.3512 78.7136 14.3008 78.7567 14.2433C78.7999 14.2001 78.8611 14.1173 78.9403 13.995C79.0266 13.8726 79.1094 13.7431 79.1885 13.6064C79.2749 13.4624 79.3469 13.3293 79.4045 13.2069C79.462 13.0846 79.4908 12.9946 79.4908 12.9371ZM93.9564 9.86042C93.9564 10.0403 93.9312 10.2418 93.8808 10.4649C93.8304 10.6881 93.7513 10.9004 93.6433 11.1019C93.5426 11.2962 93.413 11.4617 93.2547 11.5984C93.0964 11.728 92.9092 11.7928 92.6933 11.7928C92.5062 11.7928 92.3263 11.746 92.1536 11.6524C91.9809 11.5517 91.8297 11.4329 91.7002 11.2962C91.6282 11.145 91.585 10.9903 91.5706 10.832C91.5563 10.6665 91.5023 10.5117 91.4087 10.3678C91.3943 10.3534 91.3871 10.3174 91.3871 10.2598C91.3871 10.1807 91.4015 10.1051 91.4303 10.0331C91.4591 9.96117 91.4735 9.87481 91.4735 9.77406C91.4735 9.6661 91.4879 9.56175 91.5167 9.461C91.5455 9.35304 91.5598 9.2379 91.5598 9.11555C91.5598 9.05798 91.5167 8.95362 91.4303 8.80249C91.3511 8.65136 91.2576 8.49662 91.1496 8.33829C91.0417 8.17277 90.9337 8.02523 90.8258 7.89569C90.725 7.75895 90.6531 7.67979 90.6099 7.6582C90.5883 7.6438 90.5631 7.6438 90.5343 7.6582C90.5055 7.67259 90.4731 7.67979 90.4371 7.67979L90.4156 7.6582L90.3508 7.51786C90.1709 7.44589 90.0053 7.39551 89.8542 7.36673C89.7103 7.33074 89.5663 7.30555 89.4224 7.29116C89.2785 7.27677 89.1309 7.26957 88.9798 7.26957C88.8287 7.26237 88.6667 7.25158 88.494 7.23718C88.3933 7.22279 88.2925 7.2084 88.1917 7.194C88.091 7.17241 87.983 7.16162 87.8679 7.16162C87.7959 7.16162 87.6952 7.18681 87.5656 7.23718C87.4361 7.28756 87.3029 7.35233 87.1662 7.4315C87.0367 7.50347 86.9143 7.57903 86.7992 7.6582C86.684 7.73736 86.6084 7.80933 86.5725 7.8741C86.5293 7.92448 86.4825 8.02883 86.4321 8.18716C86.3889 8.34549 86.3458 8.51821 86.3026 8.70533C86.2594 8.88525 86.2198 9.06157 86.1838 9.2343C86.1551 9.40702 86.1371 9.52937 86.1299 9.60133C86.1658 9.6877 86.2162 9.76686 86.281 9.83883C86.3458 9.9036 86.4105 9.96837 86.4753 10.0331C86.5473 10.0979 86.6084 10.1663 86.6588 10.2383C86.7164 10.3102 86.7524 10.4002 86.7668 10.5081C86.9107 10.5441 87.0295 10.5945 87.123 10.6593C87.2238 10.7168 87.3209 10.7744 87.4145 10.832C87.5152 10.8824 87.6232 10.9255 87.7383 10.9615C87.8607 10.9903 88.0154 10.9867 88.2025 10.9507C88.2961 11.0299 88.3933 11.1055 88.494 11.1774C88.602 11.2494 88.6955 11.3358 88.7747 11.4365C88.8107 11.4005 88.8539 11.3825 88.9042 11.3825C88.9546 11.3753 89.0086 11.3717 89.0662 11.3717H89.336C89.4296 11.4293 89.5304 11.4761 89.6383 11.5121C89.7535 11.5409 89.865 11.5697 89.973 11.5984C90.0881 11.62 90.1997 11.6452 90.3076 11.674C90.4156 11.7028 90.5163 11.7496 90.6099 11.8143C90.7538 11.8935 90.869 12.0051 90.9553 12.149C91.0417 12.2857 91.1424 12.4081 91.2576 12.516C91.3008 12.5016 91.3367 12.4908 91.3655 12.4837C91.4015 12.4765 91.4375 12.4729 91.4735 12.4729C91.5814 12.4729 91.675 12.5016 91.7542 12.5592C91.8333 12.6168 91.9089 12.6816 91.9809 12.7535C92.0528 12.8183 92.1248 12.8867 92.1968 12.9586C92.2759 13.0234 92.3659 13.0666 92.4666 13.0882C92.4954 13.1889 92.5314 13.2897 92.5746 13.3904C92.6178 13.4912 92.679 13.5776 92.7581 13.6495C92.7437 13.8007 92.7437 13.9554 92.7581 14.1137C92.7725 14.2649 92.7797 14.4124 92.7797 14.5563C92.7797 14.6643 92.7653 14.7686 92.7365 14.8694C92.7077 14.963 92.6933 15.0565 92.6933 15.1501C92.6933 15.2292 92.7077 15.3084 92.7365 15.3876C92.7653 15.4667 92.7977 15.5495 92.8337 15.6359C92.8697 15.7222 92.9021 15.8086 92.9308 15.8949C92.9596 15.9741 92.9776 16.0569 92.9848 16.1432C92.956 16.244 92.9236 16.3303 92.8877 16.4023C92.8589 16.4743 92.8301 16.5462 92.8013 16.6182C92.7797 16.6902 92.7617 16.7657 92.7473 16.8449C92.7401 16.9241 92.7437 17.0212 92.7581 17.1364C92.6214 17.3019 92.5134 17.4818 92.4343 17.6761C92.3551 17.8705 92.2507 18.0504 92.1212 18.2159L91.9809 18.2915V18.421L91.8297 18.5074C91.7937 18.5937 91.7686 18.6513 91.7542 18.6801C91.7398 18.7089 91.7218 18.7269 91.7002 18.7341C91.6858 18.7485 91.6606 18.7629 91.6246 18.7773C91.5886 18.7916 91.5383 18.8204 91.4735 18.8636C91.4087 18.9068 91.3547 18.9644 91.3116 19.0363C91.2684 19.1083 91.2072 19.1695 91.128 19.2199C91.0129 19.2846 90.8833 19.3206 90.7394 19.3278C90.6027 19.3422 90.4731 19.3782 90.3508 19.4358C90.2356 19.4789 90.1277 19.5437 90.0269 19.6301C89.9262 19.7164 89.8182 19.7704 89.7031 19.792C89.5735 19.8136 89.4332 19.8172 89.2821 19.8028C89.1381 19.7956 89.0014 19.792 88.8718 19.792C88.7495 19.792 88.6308 19.8028 88.5156 19.8244C88.4005 19.846 88.2817 19.8568 88.1594 19.8568C88.0082 19.8568 87.8535 19.8424 87.6952 19.8136C87.5368 19.7848 87.3785 19.7524 87.2202 19.7164C87.069 19.6805 86.9143 19.6481 86.756 19.6193C86.5977 19.5905 86.4393 19.5725 86.281 19.5653C86.2306 19.4933 86.173 19.4394 86.1083 19.4034C86.0435 19.3746 85.9751 19.353 85.9032 19.3386C85.8312 19.3314 85.7592 19.3206 85.6873 19.3062C85.6153 19.2918 85.5469 19.263 85.4822 19.2199C85.3958 19.1551 85.313 19.0831 85.2339 19.004C85.1619 18.9248 85.0863 18.8456 85.0072 18.7665C84.928 18.6873 84.8452 18.6117 84.7589 18.5398C84.6797 18.4678 84.5897 18.4066 84.489 18.3562C84.4818 18.2915 84.4494 18.1799 84.3918 18.0216C84.3415 17.8705 84.2839 17.7121 84.2191 17.5466C84.1615 17.3811 84.1076 17.2227 84.0572 17.0716C84.0068 16.9133 83.9816 16.8017 83.9816 16.737C83.9816 16.5858 83.9924 16.4311 84.014 16.2728C84.0356 16.1144 84.0464 15.9525 84.0464 15.787C84.0464 15.679 84.086 15.5711 84.1651 15.4631C84.2443 15.348 84.3415 15.2472 84.4566 15.1609C84.5718 15.0673 84.6941 14.9953 84.8236 14.945C84.9532 14.8874 85.0647 14.8586 85.1583 14.8586C85.3526 14.8586 85.5361 14.9054 85.7088 14.9989C85.8888 15.0925 86.0579 15.1932 86.2162 15.3012C86.2234 15.4235 86.2378 15.5711 86.2594 15.7438C86.281 15.9165 86.317 16.0892 86.3674 16.262C86.4177 16.4347 86.4825 16.5966 86.5617 16.7478C86.6408 16.8917 86.738 16.9996 86.8531 17.0716C86.8891 17.0932 86.9215 17.104 86.9503 17.104C86.9863 17.104 87.0223 17.1148 87.0582 17.1364L87.123 17.2875C87.1662 17.3019 87.2238 17.3019 87.2957 17.2875C87.3677 17.2731 87.4217 17.2659 87.4577 17.2659C87.508 17.2659 87.544 17.2731 87.5656 17.2875C87.5944 17.3019 87.616 17.3199 87.6304 17.3415C87.652 17.3559 87.67 17.3739 87.6844 17.3955C87.6988 17.4099 87.724 17.4207 87.7599 17.4279C87.8535 17.4494 87.9507 17.4602 88.0514 17.4602C88.1522 17.453 88.2457 17.4494 88.3321 17.4494C88.4328 17.4494 88.53 17.4566 88.6236 17.471C88.7243 17.4854 88.8215 17.5214 88.915 17.579C88.9726 17.5358 89.0482 17.5034 89.1417 17.4818C89.2425 17.453 89.3432 17.4279 89.444 17.4063C89.5447 17.3847 89.6383 17.3595 89.7247 17.3307C89.811 17.3019 89.8722 17.2659 89.9082 17.2227C90.0305 17.0716 90.1529 16.9061 90.2752 16.7262C90.3976 16.5462 90.5091 16.3735 90.6099 16.208C90.5955 16.0497 90.5955 15.8949 90.6099 15.7438C90.6243 15.5855 90.6315 15.4235 90.6315 15.258C90.6315 15.0925 90.6099 14.9594 90.5667 14.8586C90.5235 14.7506 90.4731 14.6535 90.4156 14.5671C90.3652 14.4808 90.3112 14.3944 90.2536 14.308C90.1961 14.2217 90.1529 14.1173 90.1241 13.995C90.0593 13.9662 89.9873 13.941 89.9082 13.9194C89.829 13.8978 89.7463 13.8726 89.6599 13.8438C89.5807 13.8151 89.5052 13.7827 89.4332 13.7467C89.3612 13.7035 89.3037 13.6459 89.2605 13.574C89.0877 13.574 88.9294 13.5488 88.7855 13.4984C88.6415 13.4408 88.4904 13.3725 88.3321 13.2933C88.2457 13.3149 88.163 13.3293 88.0838 13.3365C88.0046 13.3365 87.9183 13.3365 87.8247 13.3365C87.6304 13.3365 87.4433 13.3113 87.2634 13.2609C87.0906 13.2033 86.9215 13.1458 86.756 13.0882C86.5905 13.0306 86.4249 12.9802 86.2594 12.9371C86.1011 12.8867 85.9391 12.8651 85.7736 12.8723C85.6945 12.7715 85.5829 12.6528 85.439 12.516C85.295 12.3793 85.1475 12.2426 84.9964 12.1058C84.8524 11.9691 84.7193 11.8431 84.5969 11.728C84.4746 11.6056 84.3954 11.5085 84.3594 11.4365C84.3019 11.3502 84.2551 11.2566 84.2191 11.1558C84.1903 11.0479 84.1579 10.9435 84.122 10.8428C84.0932 10.742 84.0572 10.6449 84.014 10.5513C83.978 10.4578 83.924 10.375 83.8521 10.303C83.9096 10.1879 83.9384 10.0547 83.9384 9.9036C83.9384 9.77406 83.924 9.64811 83.8953 9.52577C83.8665 9.39622 83.8521 9.26668 83.8521 9.13714C83.8521 9.02919 83.8665 8.93203 83.8953 8.84567C83.924 8.75211 83.9528 8.65855 83.9816 8.56499C84.0176 8.47144 84.0464 8.37428 84.068 8.27352C84.0896 8.17277 84.0896 8.06122 84.068 7.93887C84.4854 7.4207 84.8632 6.85216 85.2015 6.23323C85.3022 6.15407 85.4102 6.0857 85.5253 6.02812C85.6477 5.97055 85.752 5.90218 85.8384 5.82301C86.0903 5.61431 86.3386 5.45598 86.5833 5.34802C86.828 5.23288 87.1194 5.1753 87.4577 5.1753C87.5656 5.1753 87.6664 5.15011 87.7599 5.09973C87.8535 5.04216 87.9507 4.99538 88.0514 4.9594C88.1234 4.93781 88.2097 4.91981 88.3105 4.90542C88.4184 4.89103 88.53 4.88023 88.6451 4.87304C88.7603 4.86584 88.8682 4.86224 88.969 4.86224C89.077 4.86224 89.1669 4.86224 89.2389 4.86224C89.4476 4.86224 89.6347 4.89103 89.8002 4.9486C89.9658 4.99898 90.1421 5.02417 90.3292 5.02417C90.4156 5.02417 90.5019 5.06015 90.5883 5.13212C90.6746 5.20409 90.7574 5.26166 90.8366 5.30484C91.0669 5.42719 91.3008 5.54234 91.5383 5.65029C91.7829 5.75824 92.0276 5.859 92.2723 5.95256C92.3371 6.05331 92.4091 6.14327 92.4882 6.22244C92.5746 6.2944 92.661 6.36637 92.7473 6.43834C92.8409 6.50311 92.9308 6.57148 93.0172 6.64345C93.1036 6.71542 93.1863 6.79458 93.2655 6.88094C93.3303 7.11844 93.4022 7.36313 93.4814 7.61502C93.5606 7.85971 93.6325 8.108 93.6973 8.35989C93.7693 8.60458 93.8304 8.85646 93.8808 9.11555C93.9312 9.36744 93.9564 9.61573 93.9564 9.86042ZM104.914 14.5024C104.914 14.6175 104.928 14.7255 104.957 14.8262C104.985 14.927 105 15.0349 105 15.1501C105 15.2364 104.978 15.3084 104.935 15.366C104.899 15.4235 104.87 15.4991 104.849 15.5927C104.806 15.7366 104.755 15.8877 104.698 16.0461C104.64 16.1972 104.586 16.3519 104.536 16.5103C104.493 16.6686 104.457 16.8269 104.428 16.9853C104.406 17.1436 104.406 17.2983 104.428 17.4494C104.32 17.5646 104.226 17.6977 104.147 17.8489C104.075 17.9928 104.01 18.1439 103.953 18.3023C103.895 18.4606 103.841 18.6189 103.791 18.7773C103.74 18.9428 103.686 19.0975 103.629 19.2414C103.413 19.3566 103.197 19.4142 102.981 19.4142C102.852 19.4142 102.711 19.3746 102.56 19.2954C102.416 19.2235 102.279 19.1299 102.15 19.0147C102.028 18.9068 101.923 18.7845 101.837 18.6477C101.751 18.511 101.707 18.3778 101.707 18.2483C101.707 18.0684 101.733 17.892 101.783 17.7193C101.833 17.5466 101.858 17.3595 101.858 17.158C101.858 17.0788 101.898 16.9996 101.977 16.9205C102.056 16.8341 102.107 16.7514 102.128 16.6722C102.136 16.6434 102.15 16.5678 102.172 16.4455C102.193 16.3159 102.211 16.1792 102.226 16.0353C102.247 15.8913 102.261 15.7546 102.269 15.6251C102.283 15.4955 102.287 15.4163 102.279 15.3876C102.387 15.2796 102.474 15.1573 102.539 15.0205C102.611 14.8838 102.672 14.7434 102.722 14.5995C102.78 14.4484 102.834 14.3008 102.884 14.1569C102.934 14.0058 102.992 13.8654 103.057 13.7359C103.042 13.6999 103.035 13.6603 103.035 13.6171C103.035 13.574 103.035 13.5308 103.035 13.4876C103.035 13.3005 103.064 13.1206 103.122 12.9478C103.179 12.7751 103.208 12.5952 103.208 12.4081C103.208 12.2929 103.197 12.1814 103.175 12.0734C103.154 11.9655 103.143 11.8539 103.143 11.7388C103.143 11.5877 103.165 11.4365 103.208 11.2854C103.251 11.1271 103.273 10.9687 103.273 10.8104C103.273 10.6809 103.255 10.5153 103.219 10.3138C103.183 10.1051 103.132 9.8928 103.068 9.6769C103.01 9.461 102.938 9.25949 102.852 9.07237C102.765 8.88525 102.672 8.75211 102.571 8.67295C102.477 8.34909 102.254 8.18716 101.902 8.18716C101.743 8.18716 101.574 8.21955 101.394 8.28432C101.222 8.34909 101.052 8.43545 100.887 8.5434C100.721 8.64416 100.57 8.76291 100.434 8.89965C100.304 9.02919 100.203 9.16593 100.131 9.30986C100.117 9.35304 100.106 9.39263 100.099 9.42861C100.099 9.46459 100.088 9.50058 100.066 9.53656C100.002 9.65891 99.9153 9.76686 99.8074 9.86042C99.7066 9.94678 99.6239 10.0511 99.5591 10.1735C99.4943 10.3174 99.4547 10.4685 99.4403 10.6269C99.426 10.7852 99.4008 10.9435 99.3648 11.1019C99.2496 11.2026 99.1489 11.3178 99.0625 11.4473C98.9762 11.5769 98.8826 11.6992 98.7818 11.8143C98.7818 11.8215 98.7638 11.8827 98.7279 11.9979C98.6919 12.113 98.6451 12.257 98.5875 12.4297C98.5372 12.6024 98.4796 12.7895 98.4148 12.991C98.3572 13.1925 98.2997 13.3833 98.2421 13.5632C98.1917 13.7359 98.1485 13.8834 98.1125 14.0058C98.0766 14.1281 98.0586 14.1929 98.0586 14.2001C98.0586 14.3224 98.073 14.4484 98.1017 14.5779C98.1305 14.7003 98.1449 14.8226 98.1449 14.945C98.1449 15.0817 98.1341 15.2184 98.1125 15.3552C98.0909 15.4847 98.0802 15.6143 98.0802 15.7438C98.0802 16.0677 98.1125 16.3879 98.1773 16.7046C98.2421 17.014 98.2745 17.3343 98.2745 17.6653C98.2745 17.8741 98.2457 18.0324 98.1881 18.1403C98.1305 18.2555 98.0622 18.349 97.983 18.421C97.911 18.493 97.8391 18.5614 97.7671 18.6261C97.7023 18.6909 97.6591 18.7773 97.6375 18.8852L97.5728 18.8636C97.508 18.8564 97.4396 18.8636 97.3677 18.8852C97.2957 18.914 97.2237 18.9428 97.1518 18.9716C97.0798 19.0076 97.0042 19.0363 96.9251 19.0579C96.8531 19.0867 96.7739 19.1011 96.6876 19.1011C96.5364 19.1011 96.3997 19.0543 96.2774 18.9608C96.155 18.8672 96.0471 18.7485 95.9535 18.6045C95.8671 18.4678 95.7988 18.3203 95.7484 18.1619C95.698 18.0036 95.6728 17.8597 95.6728 17.7301C95.6728 17.3127 95.6944 16.8953 95.7376 16.4779C95.7808 16.0605 95.8024 15.6394 95.8024 15.2148C95.8024 14.6751 95.8024 14.1353 95.8024 13.5956C95.8024 13.0486 95.7952 12.5052 95.7808 11.9655C95.7808 11.9007 95.77 11.8395 95.7484 11.782C95.7268 11.7244 95.716 11.6668 95.716 11.6092C95.716 11.5445 95.7268 11.4833 95.7484 11.4257C95.77 11.3681 95.7808 11.3034 95.7808 11.2314C95.7808 11.1091 95.7592 10.9831 95.716 10.8536C95.6728 10.724 95.6512 10.5945 95.6512 10.4649C95.6512 10.3642 95.6692 10.267 95.7052 10.1735C95.7412 10.0799 95.7664 9.98276 95.7808 9.88201C95.824 9.62292 95.8455 9.36024 95.8455 9.09396C95.8455 8.72692 95.8383 8.36348 95.824 8.00364C95.8096 7.63661 95.8024 7.26957 95.8024 6.90253C95.8024 6.81617 95.7988 6.72981 95.7916 6.64345C95.7844 6.55709 95.7592 6.47432 95.716 6.39516C95.7376 6.2944 95.7664 6.20085 95.8024 6.11448C95.8455 6.02812 95.8671 5.93097 95.8671 5.82301C95.8671 5.65749 95.8312 5.49916 95.7592 5.34802C95.6872 5.18969 95.6512 5.02777 95.6512 4.86224C95.6512 4.61035 95.6728 4.35846 95.716 4.10658C95.7592 3.84749 95.7808 3.592 95.7808 3.34012C95.7808 3.13141 95.7664 2.9263 95.7376 2.72479C95.7088 2.51608 95.6944 2.30738 95.6944 2.09867C95.6944 1.73163 95.8024 1.46175 96.0183 1.28903C96.2342 1.10911 96.5077 1.01915 96.8387 1.01915C96.9539 1.01915 97.0654 0.997558 97.1734 0.954377C97.2885 0.911197 97.3929 0.889606 97.4864 0.889606C97.5368 0.889606 97.58 0.907598 97.616 0.943582C97.6519 0.972369 97.6807 1.01195 97.7023 1.06233C97.7239 1.11271 97.7455 1.16308 97.7671 1.21346C97.7887 1.26384 97.8175 1.30342 97.8535 1.33221L97.9938 1.39698C98.0226 1.44736 98.055 1.5733 98.0909 1.77481C98.1341 1.96913 98.1737 2.18143 98.2097 2.41173C98.2529 2.63483 98.2889 2.85073 98.3176 3.05944C98.3464 3.26095 98.3608 3.39049 98.3608 3.44807C98.3608 3.55602 98.3464 3.66037 98.3176 3.76113C98.2889 3.85469 98.2565 3.94825 98.2205 4.0418C98.1845 4.13536 98.1521 4.22892 98.1233 4.32248C98.0945 4.41604 98.0802 4.51679 98.0802 4.62475C98.0802 4.91262 98.1017 5.20049 98.1449 5.48836C98.1881 5.76904 98.2097 6.05691 98.2097 6.35198C98.2097 6.58228 98.1809 6.81617 98.1233 7.05367C98.0658 7.28396 98.037 7.51426 98.037 7.74456C98.037 7.90289 98.073 8.07201 98.1449 8.25193C98.2457 8.23754 98.3248 8.20156 98.3824 8.14398C98.4472 8.08641 98.5012 8.02164 98.5443 7.94967C98.5875 7.8705 98.6235 7.78774 98.6523 7.70138C98.6883 7.61502 98.7315 7.53945 98.7818 7.47468C98.8178 7.4315 98.8682 7.38112 98.933 7.32355C98.9977 7.25877 99.0625 7.1976 99.1273 7.14003C99.1993 7.08245 99.264 7.02848 99.3216 6.9781C99.3792 6.92053 99.4152 6.87375 99.4296 6.83776C99.4655 6.76579 99.4943 6.70822 99.5159 6.66504C99.5375 6.62186 99.5807 6.58228 99.6455 6.54629C99.739 6.48152 99.8326 6.42754 99.9261 6.38436C100.027 6.33399 100.095 6.24043 100.131 6.10369C100.383 6.02452 100.639 5.94536 100.898 5.86619C101.157 5.78703 101.427 5.74745 101.707 5.74745C101.923 5.74745 102.139 5.78343 102.355 5.8554C102.578 5.92017 102.79 5.99214 102.992 6.0713C103.193 6.15047 103.381 6.22603 103.553 6.298C103.726 6.36277 103.877 6.39516 104.007 6.39516C104.064 6.39516 104.129 6.43834 104.201 6.5247C104.273 6.60387 104.349 6.65424 104.428 6.67583C104.485 6.84136 104.518 7.01049 104.525 7.18321C104.532 7.35593 104.564 7.52146 104.622 7.67979C104.687 7.83092 104.77 7.97486 104.87 8.1116C104.978 8.24114 105.065 8.38148 105.129 8.53261C105.115 8.61177 105.101 8.68734 105.086 8.75931C105.072 8.82408 105.065 8.89605 105.065 8.97521C105.065 9.13354 105.104 9.27748 105.183 9.40702C105.263 9.53656 105.32 9.6733 105.356 9.81724C105.378 9.95398 105.389 10.0907 105.389 10.2275C105.396 10.357 105.399 10.4937 105.399 10.6377C105.399 11.0407 105.392 11.4653 105.378 11.9115C105.371 12.3577 105.331 12.7823 105.259 13.1853C105.245 13.2861 105.216 13.3904 105.173 13.4984C105.137 13.6064 105.097 13.7143 105.054 13.8223C105.018 13.9302 104.985 14.0418 104.957 14.1569C104.928 14.2721 104.914 14.3872 104.914 14.5024Z" fill="#AB5373"/>
</svg>
