<svg width="40" height="41" viewBox="0 0 40 41" fill="none" xmlns="http://www.w3.org/2000/svg">
    <rect y="0.81543" width="40" height="40" rx="20" fill="white"/>
    <path d="M25.8371 14.904C24.2783 13.3415 22.2024 12.4821 19.9963 12.4821C15.4427 12.4821 11.7374 16.1875 11.7374 20.741C11.7374 22.1956 12.1168 23.6168 12.8386 24.8705L11.6667 29.1488L16.0454 27.9992C17.2508 28.6577 18.6087 29.0037 19.9926 29.0037H19.9963C24.5462 29.0037 28.3334 25.2983 28.3334 20.7448C28.3334 18.5387 27.3959 16.4665 25.8371 14.904ZM19.9963 27.6123C18.7612 27.6123 17.5521 27.2812 16.4993 26.6562L16.25 26.5074L13.6533 27.1882L14.3453 24.6547L14.1816 24.3943C13.4933 23.3006 13.1325 22.0394 13.1325 20.741C13.1325 16.9575 16.2128 13.8772 20 13.8772C21.8341 13.8772 23.5566 14.5915 24.8512 15.8898C26.1459 17.1882 26.942 18.9107 26.9383 20.7448C26.9383 24.532 23.7798 27.6123 19.9963 27.6123ZM23.7612 22.4709C23.5566 22.3668 22.5409 21.8683 22.3512 21.8013C22.1615 21.7306 22.0238 21.6971 21.8862 21.9055C21.7485 22.1138 21.3542 22.5751 21.2314 22.7165C21.1124 22.8541 20.9896 22.8727 20.785 22.7686C19.5722 22.1622 18.7761 21.686 17.9762 20.3132C17.7642 19.9486 18.1883 19.9747 18.5826 19.186C18.6496 19.0483 18.6161 18.9293 18.564 18.8251C18.5119 18.7209 18.099 17.7053 17.9278 17.2924C17.7604 16.8906 17.5893 16.9464 17.4628 16.9389C17.3438 16.9315 17.2061 16.9315 17.0685 16.9315C16.9308 16.9315 16.7076 16.9836 16.5179 17.1882C16.3281 17.3965 15.7962 17.895 15.7962 18.9107C15.7962 19.9263 16.5365 20.9084 16.6369 21.0461C16.7411 21.1837 18.0915 23.2671 20.1637 24.1637C21.4732 24.7291 21.9866 24.7775 22.6414 24.6808C23.0395 24.6212 23.8616 24.1823 24.0328 23.6986C24.2039 23.215 24.2039 22.802 24.1518 22.7165C24.1034 22.6235 23.9658 22.5714 23.7612 22.4709Z"
          fill="#AB5373"/>
</svg>
