<svg width="59" height="59" viewBox="0 0 59 59" fill="none" xmlns="http://www.w3.org/2000/svg">
    <path d="M48.8457 19.6075L43.3503 14.1121C43.5198 13.0954 43.7861 12.1512 44.125 11.3281C44.3913 10.6987 44.4881 9.97244 44.3429 9.22197C44.0281 7.47894 42.3335 6.26851 40.5421 6.29272C36.6929 6.36534 33.2795 8.25362 31.1007 11.1345H18.9963C11.6369 11.1345 5.68155 17.0898 5.68155 24.4492C5.68155 29.8962 8.99814 42.5574 10.717 48.7548C11.298 50.8367 13.2105 52.2893 15.3892 52.2893H20.2068C22.8697 52.2893 25.0485 50.1105 25.0485 47.4475H29.8903C29.8903 50.1105 32.069 52.2893 34.732 52.2893H39.598C41.7283 52.2893 43.6166 50.8852 44.246 48.8274L47.2721 38.7566L52.4528 37.0136C53.4453 36.6746 54.099 35.7547 54.099 34.7137V22.0284C54.099 20.6969 53.0096 19.6075 51.6781 19.6075H48.8457ZM29.8903 23.2388H22.6276C21.2962 23.2388 20.2068 22.1494 20.2068 20.8179C20.2068 19.4865 21.2962 18.3971 22.6276 18.3971H29.8903C31.2217 18.3971 32.3111 19.4865 32.3111 20.8179C32.3111 22.1494 31.2217 23.2388 29.8903 23.2388ZM39.5737 28.0806C38.2423 28.0806 37.1529 26.9912 37.1529 25.6597C37.1529 24.3282 38.2423 23.2388 39.5737 23.2388C40.9052 23.2388 41.9946 24.3282 41.9946 25.6597C41.9946 26.9912 40.9052 28.0806 39.5737 28.0806Z" fill="#AB5373"/>
</svg>
