<svg width="181" height="90" viewBox="0 0 181 90" fill="none" xmlns="http://www.w3.org/2000/svg">
    <path d="M90.8909 178.893C139.767 178.893 179.389 139.272 179.389 90.3956C179.389 41.5197 139.767 1.89794 90.8909 1.89794C42.015 1.89794 2.39316 41.5197 2.39316 90.3956C2.39316 139.272 42.015 178.893 90.8909 178.893Z" fill="#F8EBEE"/>
    <path d="M90.8903 180.694C73.0788 180.694 55.6674 175.413 40.8577 165.517C26.048 155.622 14.5052 141.557 7.68904 125.101C0.872884 108.645 -0.910494 90.5382 2.56435 73.069C6.0392 55.5997 14.6162 39.5532 27.2108 26.9586C39.8054 14.3639 55.8519 5.78694 73.3212 2.31209C90.7904 -1.16275 108.898 0.620625 125.353 7.43678C141.809 14.2529 155.874 25.7957 165.769 40.6054C175.665 55.4151 180.947 72.8266 180.947 90.6381C180.874 114.5 171.362 137.364 154.489 154.237C137.616 171.11 114.752 180.621 90.8903 180.694ZM90.8903 3.73365C73.7639 3.73365 57.0221 8.81222 42.782 18.3271C28.5419 27.8421 17.4431 41.366 10.8891 57.1887C4.33512 73.0115 2.62027 90.4224 5.96147 107.22C9.30266 124.017 17.5498 139.446 29.66 151.557C41.7702 163.667 57.1996 171.914 73.9969 175.255C90.7943 178.596 108.205 176.882 124.028 170.328C139.851 163.774 153.375 152.675 162.89 138.435C172.404 124.195 177.483 107.453 177.483 90.3263C177.437 67.3682 168.302 45.3624 152.074 29.122C135.847 12.8816 113.848 3.72842 90.8903 3.66436V3.73365Z" fill="#AB5373"/>
    <path d="M90.8914 170.788C74.9897 170.795 59.4432 166.086 46.2182 157.256C32.9931 148.427 22.6836 135.874 16.5935 121.185C10.5035 106.495 8.9065 90.3299 12.0046 74.733C15.1026 59.136 22.7565 44.8082 33.9983 33.5616C45.24 22.3151 59.5645 14.6549 75.1601 11.5502C90.7557 8.44538 106.922 10.0354 121.614 16.1191C136.305 22.2028 148.863 32.507 157.698 45.7282C166.534 58.9495 171.249 74.4939 171.249 90.3955C171.231 111.705 162.76 132.138 147.695 147.209C132.63 162.281 112.201 170.761 90.8914 170.788ZM90.8914 13.5012C75.6733 13.4944 60.7951 18.0012 48.1389 26.4517C35.4827 34.9021 25.6171 46.9164 19.7903 60.9747C13.9634 75.0331 12.437 90.5038 15.4043 105.43C18.3715 120.356 25.699 134.066 36.4597 144.827C47.2205 155.588 60.9312 162.915 75.8571 165.883C90.7831 168.85 106.254 167.323 120.312 161.497C134.37 155.67 146.385 145.804 154.835 133.148C163.286 120.492 167.792 105.614 167.786 90.3955C167.758 70.0103 159.648 50.468 145.233 36.0534C130.819 21.6389 111.277 13.5287 90.8914 13.5012Z" fill="#AB5373"/>
    <path d="M96.7099 159.566H90.6138C90.1545 159.566 89.714 159.383 89.3892 159.058C89.0644 158.734 88.8819 158.293 88.8819 157.834V147.443C85.166 147.368 81.5064 146.519 78.1369 144.95C74.7673 143.382 71.7618 141.128 69.312 138.333C64.6707 132.722 62.1421 124.478 61.7957 113.325C61.7819 112.904 61.922 112.493 62.1898 112.167C62.4576 111.842 62.8347 111.626 63.2505 111.559L81.5042 108.441C81.749 108.406 81.9983 108.422 82.2367 108.488C82.475 108.553 82.6973 108.667 82.8898 108.822C83.0817 108.979 83.2393 109.174 83.3525 109.394C83.4658 109.615 83.5323 109.856 83.5479 110.104C83.6191 113.602 84.0485 117.084 84.8294 120.495C85.2523 122.598 86.2334 124.548 87.6696 126.141C88.2698 126.707 88.9779 127.145 89.7516 127.431C90.5253 127.717 91.3487 127.843 92.1725 127.803C95.1859 127.803 95.9133 126.487 96.1558 126.072C97.0396 124.523 97.4828 122.762 97.4373 120.98C97.5539 117.411 96.601 113.889 94.701 110.866C92.4058 107.635 89.692 104.723 86.6306 102.207L75.6159 92.7507C73.1548 90.451 70.8411 87.9985 68.6885 85.4076C66.5535 82.7693 64.8683 79.7967 63.7008 76.6098C62.3853 72.8858 61.7517 68.9552 61.8304 65.0064C61.6211 61.3046 62.1741 57.5992 63.455 54.1197C64.736 50.6402 66.7177 47.4608 69.2774 44.7783C74.211 40.1155 80.5908 37.2801 87.3579 36.7425V26.767C87.3579 26.3077 87.5404 25.8672 87.8652 25.5425C88.19 25.2177 88.6304 25.0352 89.0898 25.0352H95.3244C95.7838 25.0352 96.2242 25.2177 96.549 25.5425C96.8738 25.8672 97.0563 26.3077 97.0563 26.767V36.7079C100.806 36.9751 104.444 38.101 107.69 39.9984C110.772 41.8628 113.324 44.4864 115.102 47.6186C116.74 50.6579 117.908 53.9278 118.566 57.317C119.274 60.5788 119.725 63.8909 119.917 67.2232C119.947 67.6571 119.809 68.0858 119.531 68.4209C119.254 68.7561 118.859 68.972 118.427 69.0243L99.8965 71.7606C99.6572 71.7949 99.4134 71.7787 99.1808 71.7131C98.9481 71.6475 98.7318 71.5339 98.5457 71.3796C98.355 71.224 98.2006 71.0287 98.0929 70.8074C97.9853 70.5861 97.927 70.3441 97.9222 70.0981C97.8588 67.3359 97.6042 64.5814 97.1602 61.8544C96.929 60.0636 96.25 58.3601 95.1859 56.9013C94.707 56.3969 94.1145 56.0144 93.4578 55.7854C92.801 55.5565 92.0991 55.4878 91.4104 55.5851C90.6006 55.5591 89.7976 55.7393 89.0765 56.1089C88.3555 56.4785 87.7403 57.0253 87.2886 57.698C86.2284 59.182 85.6702 60.966 85.6953 62.7896C85.529 65.8314 86.4091 68.8383 88.1892 71.3103C90.087 73.7862 92.1837 76.103 94.4585 78.2377L105.196 87.5551C108.117 90.2155 110.827 93.0991 113.301 96.1798C115.832 99.3259 117.885 102.827 119.397 106.571C121.016 110.803 121.804 115.307 121.718 119.837C121.766 124.437 120.759 128.987 118.774 133.138C116.805 137.103 113.831 140.483 110.149 142.94C106.652 145.211 102.684 146.656 98.5457 147.166V157.834C98.5412 158.069 98.49 158.301 98.3949 158.515C98.2998 158.73 98.1627 158.924 97.9917 159.085C97.8208 159.247 97.6193 159.372 97.3992 159.455C97.1791 159.537 96.9448 159.575 96.7099 159.566ZM92.2071 156.102H94.9781V145.711C94.9678 145.278 95.1235 144.857 95.4133 144.535C95.7031 144.213 96.105 144.014 96.5368 143.979C100.653 143.68 104.629 142.358 108.106 140.134C111.293 138.011 113.862 135.084 115.552 131.648C117.316 127.988 118.206 123.969 118.15 119.906C118.226 115.816 117.52 111.748 116.072 107.922C114.709 104.46 112.829 101.225 110.496 98.3273C108.149 95.3745 105.565 92.6175 102.771 90.0836L92.0686 80.8009C89.6394 78.5707 87.3924 76.15 85.349 73.5618C83.0926 70.4758 81.9563 66.7126 82.1277 62.8935C82.1278 60.4153 82.8896 57.997 84.3098 55.9661C85.0946 54.8677 86.1361 53.9779 87.3435 53.3742C88.5509 52.7704 89.8877 52.4712 91.2372 52.5024C92.4632 52.362 93.7048 52.5255 94.8526 52.9785C96.0003 53.4316 97.0189 54.1603 97.8183 55.1002C99.2708 57.0114 100.202 59.2673 100.52 61.6466C100.896 63.9397 101.139 66.2528 101.247 68.574L116.28 66.3573C116.047 63.7264 115.654 61.1122 115.102 58.5292C114.507 55.4809 113.431 52.5464 111.916 49.8354C110.439 47.2076 108.302 45.0108 105.716 43.4621C102.472 41.6137 98.8147 40.613 95.082 40.5526C94.6409 40.5261 94.2267 40.332 93.924 40.0101C93.6214 39.6881 93.4533 39.2626 93.4541 38.8207V29.0185H90.6138V38.8207C90.6152 39.257 90.4519 39.6778 90.1565 39.9989C89.8611 40.3199 89.4554 40.5177 89.0205 40.5526C82.5021 40.7686 76.28 43.3264 71.4941 47.7571C69.2731 50.127 67.5592 52.9252 66.4574 55.9806C65.3556 59.0359 64.889 62.284 65.0863 65.5259C65.0163 69.0583 65.5673 72.5754 66.7142 75.9171C67.7647 78.743 69.2744 81.3762 71.1824 83.7104C73.202 86.1789 75.4017 88.4944 77.7634 90.6378L88.7088 100.059C91.9864 102.79 94.897 105.933 97.368 109.411C99.722 112.983 100.93 117.188 100.832 121.465C100.886 123.887 100.288 126.28 99.0999 128.392C98.3827 129.558 97.354 130.5 96.13 131.112C94.9059 131.724 93.5352 131.981 92.1725 131.856C90.9011 131.896 89.6344 131.685 88.4454 131.233C87.2564 130.781 86.1686 130.098 85.245 129.224C83.3375 127.182 82.031 124.652 81.4696 121.915C80.7681 118.887 80.3277 115.805 80.1534 112.702L65.3287 115.23C65.2364 122.898 67.5634 130.401 71.979 136.67C74.3374 139.267 77.231 141.321 80.4602 142.69C83.6894 144.059 87.1773 144.712 90.6831 144.602C91.1303 144.62 91.5532 144.811 91.8631 145.134C92.1731 145.456 92.346 145.887 92.3457 146.334L92.2071 156.102Z" fill="#AB5373"/>
</svg>
